<svg width="20" height="28" viewBox="0 0 20 28" fill="none" xmlns="http://www.w3.org/2000/svg">
<path d="M18.9998 4.97291C18.9988 4.40315 18.753 3.85707 18.3163 3.45422C17.8796 3.05138 17.2875 2.8247 16.67 2.82399H16.6266C16.0535 2.82353 15.5006 3.01851 15.0744 3.37168C14.9373 2.9201 14.6441 2.52207 14.2393 2.23813C13.8344 1.95416 13.3401 1.79988 12.8315 1.79896H12.7931C12.1894 1.79873 11.6093 2.01556 11.176 2.40347C11.0309 1.99581 10.75 1.64057 10.3731 1.38858C9.99642 1.13658 9.54321 1.00069 9.0778 1H9.04215C8.47727 1.00069 7.93436 1.20096 7.52427 1.55942C7.11445 1.91787 6.86887 2.40738 6.83799 2.92748C6.45234 2.65179 5.97818 2.50234 5.49011 2.50257H5.45447C4.8694 2.50326 4.30851 2.71801 3.89472 3.09972C3.48091 3.4814 3.24832 3.99871 3.24756 4.53836V8.00843C2.59542 8.20203 2.02655 8.58141 1.62272 9.09183C1.21888 9.60228 1.00076 10.2176 1.00001 10.8494V15.1513C0.996023 17.111 2.07041 18.9387 3.85332 20.0049L4.06272 20.1304C4.58546 20.4415 4.90107 20.9763 4.90031 21.55V27.6016C4.90031 27.8214 5.0935 27.9996 5.33157 27.9996C5.56989 27.9996 5.76308 27.8214 5.76308 27.6016V21.55C5.76482 20.7073 5.30265 19.9217 4.53588 19.4634L4.32649 19.3379C2.78914 18.4189 1.86208 16.8431 1.86482 15.1532V10.8494C1.86482 10.269 2.11486 9.71218 2.55985 9.30173C3.00483 8.89108 3.60861 8.66044 4.23804 8.66044H9.50712C9.62055 8.66067 9.7245 8.71838 9.77785 8.81058C9.83119 8.90278 9.82496 9.01476 9.76189 9.10144L9.49741 9.46334C9.06664 10.0508 8.42573 10.4801 7.68686 10.6755L5.20976 11.3308C5.0188 11.3842 4.89216 11.5518 4.90413 11.7355C4.9161 11.9195 5.06318 12.0717 5.25986 12.1036C5.29675 12.1094 9.0096 12.6953 9.79684 15.5473C9.85567 15.7606 10.0907 15.8896 10.3221 15.8354C10.5534 15.7811 10.6933 15.5643 10.6344 15.3509C10.0536 13.2482 8.21087 12.2066 6.87423 11.716L7.92618 11.4385C8.86027 11.1913 9.67016 10.6486 10.2141 9.90576L10.4779 9.54385C10.5342 9.46682 10.5796 9.38359 10.6127 9.29599C10.7795 9.70572 11.0774 10.0591 11.4673 10.3086C11.8572 10.5583 12.3201 10.6923 12.7948 10.693H12.8332C13.4466 10.6933 14.0352 10.4698 14.4707 10.0711C14.6439 10.4682 14.9416 10.8082 15.3257 11.0483C15.7098 11.2884 16.1628 11.4173 16.6267 11.4187H16.6651C17.0715 11.4192 17.4706 11.3208 17.8223 11.1334V15.1829C17.8218 15.9978 17.5862 16.7977 17.1398 17.5006L15.8381 19.5511C15.4771 20.1204 15.2866 20.7679 15.2866 21.427V27.6022C15.2866 27.822 15.4798 28 15.7179 28C15.9562 28 16.1494 27.822 16.1494 27.6022V21.4288C16.1494 20.9108 16.2992 20.402 16.5834 19.9552L17.8845 17.9047C18.4087 17.0791 18.6852 16.1396 18.6852 15.1826V10.3373C18.8903 10.0134 18.9988 9.64524 19 9.27L18.9998 4.97291ZM4.11013 7.87003V4.53834C4.11088 4.20977 4.25272 3.89474 4.50475 3.6623C4.75652 3.43007 5.0983 3.29924 5.45453 3.29901H5.49018C5.84665 3.29924 6.18865 3.42984 6.44073 3.6623C6.693 3.89476 6.83485 4.21022 6.83535 4.53904V7.86608H4.23584C4.19346 7.86539 4.15201 7.87003 4.11013 7.87003ZM9.50711 7.87003H7.69778V3.04155C7.69803 2.71275 7.83962 2.3973 8.0919 2.1648C8.34392 1.93212 8.68569 1.80128 9.04219 1.80082H9.07784C9.43456 1.80128 9.77631 1.93212 10.0286 2.16457C10.2806 2.39726 10.4224 2.71249 10.4229 3.04149V8.26846C10.4224 8.27214 10.4224 8.27582 10.4229 8.2795C10.2026 8.01922 9.86505 7.86678 9.50705 7.8654L9.50711 7.87003ZM12.8316 9.90511H12.7932C12.4046 9.90511 12.0316 9.76255 11.7569 9.50917C11.482 9.25556 11.3274 8.9116 11.3274 8.55314V3.94792C11.3274 3.58946 11.482 3.24547 11.7569 2.99213C12.0316 2.73851 12.4045 2.59596 12.7932 2.59596H12.8316C13.2205 2.59596 13.5932 2.73851 13.8681 2.99213C14.143 3.24551 14.2974 3.58945 14.2974 3.94792V8.54743C14.2979 8.90612 14.1435 9.2503 13.8686 9.50417C13.5936 9.75804 13.2207 9.90056 12.8316 9.90056L12.8316 9.90511ZM16.6671 10.6275L16.6267 10.6273C16.2381 10.6273 15.8651 10.485 15.5902 10.2313C15.3152 9.97774 15.1609 9.63402 15.1609 9.27532V4.97288C15.1609 4.61443 15.3152 4.27043 15.5902 4.01685C15.8651 3.76324 16.2381 3.62091 16.6267 3.62091H16.6651C17.0537 3.62091 17.4267 3.76324 17.7016 4.01685C17.9766 4.27046 18.1309 4.61442 18.1309 4.97288V9.26843C18.1316 9.62712 17.9778 9.9713 17.7034 10.2254C17.4289 10.4795 17.0559 10.6225 16.6671 10.6229L16.6671 10.6275Z" fill="white" stroke="white" stroke-width="0.2"/>
</svg>
