<svg width="28" height="28" viewBox="0 0 28 28" fill="none" xmlns="http://www.w3.org/2000/svg">
<g clip-path="url(#clip0_1748_46052)">
<path d="M27.0023 19.3136H20.004V16.0909V16.0908C20.0035 15.7897 19.8941 15.5002 19.6982 15.286L19.6982 15.286C19.5022 15.0719 19.2354 14.9503 18.9563 14.95H18.9563L8.97928 14.95L8.97924 14.95C8.6999 14.9503 8.43312 15.0719 8.23712 15.286L8.2371 15.286C8.04121 15.5002 7.93182 15.7897 7.93159 16.0909V16.0909V17.1318H0.997694H0.997648C0.718308 17.1321 0.451527 17.2537 0.255529 17.4678L0.255509 17.4678C0.0596221 17.682 -0.0497685 17.9715 -0.05 18.2727V18.2727L-0.05 25.9091L-0.05 25.9091C-0.0497682 26.2103 0.0596113 26.4998 0.255509 26.7138C0.451512 26.9281 0.718309 27.0497 0.997648 27.05H0.997694H27.0023H27.0024C27.2817 27.0497 27.5485 26.9281 27.7445 26.7138C27.9404 26.4998 28.0498 26.2103 28.05 25.9091V25.9091V20.4545V20.4545C28.0498 20.1534 27.9404 19.8638 27.7445 19.6496L27.7445 19.6496C27.5485 19.4355 27.2817 19.3139 27.0024 19.3136H27.0023H27.0023ZM1.04711 25.8591V18.3227H7.931V25.8591H1.04711ZM9.0287 25.8591V16.1409H18.9057L18.9064 25.8591H9.0287ZM26.9523 25.8591H20.004V20.5046H26.9523V25.8591Z" fill="white" stroke="white" stroke-width="0.1"/>
<path d="M15.2002 23.1365H14.7002V18.0316C14.7 17.7724 14.5747 17.5397 14.3841 17.4444C14.1935 17.3488 13.9761 17.4103 13.8357 17.5992L12.9734 18.7595C12.7872 19.0138 12.7977 19.4095 12.9968 19.6476C13.1962 19.8853 13.5098 19.8763 13.7002 19.627V23.1364H13.2002C12.9239 23.1364 12.7002 23.4193 12.7002 23.7682C12.7002 24.117 12.9239 24.3999 13.2002 24.3999H15.2002C15.4763 24.3999 15.7002 24.117 15.7002 23.7682C15.7002 23.4193 15.4763 23.1365 15.2002 23.1365Z" fill="white"/>
<path d="M16.8969 11.9089L13.9999 10.3084L11.1028 11.9092C10.8546 12.045 10.5501 12.0271 10.3197 11.8628C10.0891 11.6985 9.97269 11.4169 10.02 11.1377L10.5802 7.70444L8.21066 5.27757C8.0172 5.07873 7.95023 4.78851 8.03803 4.52508C8.12553 4.26165 8.35264 4.06906 8.62676 4.0256L11.8743 3.5297L13.3327 0.423871C13.4542 0.165205 13.714 0.000297186 13.9997 0C14.2851 0 14.5453 0.165205 14.6667 0.423574L16.1258 3.5297L19.3736 4.0256C19.6477 4.06906 19.8748 4.26165 19.9623 4.52508C20.0495 4.78851 19.9828 5.07873 19.7891 5.27757L17.4196 7.70474L17.98 11.1401C18.0265 11.419 17.9098 11.7 17.6791 11.8637C17.4487 12.0274 17.1448 12.045 16.8969 11.9089Z" fill="white"/>
</g>
<defs>
<clipPath id="clip0_1748_46052">
<rect width="28" height="28" fill="white"/>
</clipPath>
</defs>
</svg>
