<svg width="29" height="28" viewBox="0 0 29 28" fill="none" xmlns="http://www.w3.org/2000/svg">
<g clip-path="url(#clip0_1755_3542)">
<path d="M23.1999 7.64016L24.077 6.7522L22.465 5.12012L21.5879 6.00807C22.1806 6.51216 22.7258 7.04016 23.1999 7.64016Z" fill="white" stroke="white" stroke-width="0.8"/>
<path d="M22.1595 10.4891C21.3728 9.12481 20.2584 7.98052 18.9035 7.21031C17.5705 6.44006 16.0627 6 14.4238 6V15H23.3613C23.3615 13.3498 22.9245 11.8314 22.1596 10.489L22.1595 10.4891Z" fill="white"/>
<path d="M16.2544 3.872V3.32004H17.1315V2H11.8685V3.32004H12.722V3.872C7.50647 4.736 3.5 9.32 3.5 14.864C3.5 21.008 8.43103 26 14.5 26C20.569 26 25.5 21.008 25.5 14.864C25.5 9.32 21.4935 4.712 16.2543 3.872H16.2544ZM14.5 25.424C8.73922 25.424 4.06897 20.696 4.06897 14.864C4.06897 9.032 8.73922 4.304 14.5 4.304C20.2608 4.304 24.931 9.032 24.931 14.864C24.931 20.696 20.2608 25.424 14.5 25.424Z" fill="white" stroke="white" stroke-width="0.8"/>
</g>
<defs>
<clipPath id="clip0_1755_3542">
<rect width="28" height="28" fill="white" transform="translate(0.5)"/>
</clipPath>
</defs>
</svg>
