<svg width="332" height="310" viewBox="0 0 332 310" fill="none" xmlns="http://www.w3.org/2000/svg">
<path d="M92.3958 76.7537C84.515 67.8495 71.3625 65.9345 61.8991 73.6594C52.904 80.9713 44.4747 88.9683 36.6848 97.5807C47.7415 106.55 58.2314 116.19 69.8334 124.499L72.0256 122.389C83.6169 111.31 109.056 95.6332 92.3958 76.7537Z" fill="#EDA5BB"/>
<path d="M183.811 191.201C183.394 178.781 183.533 169.054 172.915 161.73C161.944 154.156 146.182 156.742 137.745 166.945C127.769 179.041 115.568 193.365 110.713 208.177C108.168 215.912 93.2994 247.027 91.3533 254.925L183.908 256.277C183.063 242.591 184.271 204.909 183.811 191.201Z" fill="#F6F6F7"/>
<path d="M209.026 267.359C209.251 267.846 209.497 268.344 209.732 268.831C210.266 269.978 210.801 271.168 211.314 272.38C212.584 271.678 213.903 271.07 215.26 270.562C227.29 265.802 238.903 260.587 250.334 255.177C249.115 252.58 247.842 249.962 246.537 247.333C234.219 254.29 221.633 260.803 209.026 267.359Z" fill="#EDA5BB"/>
<path d="M236.378 228.226C226.187 210.58 214.078 194.141 200.279 179.215C188.452 166.373 172.477 146.758 154.993 142.138C150.465 140.905 145.777 140.379 141.092 140.58C138.373 140.34 135.635 140.71 133.072 141.662C113.076 146.217 96.8977 163.246 76.5808 172.075L73.1482 173.546C63.8345 175.818 56.6381 177.993 51.762 178.328C47.3351 178.133 44.063 177.452 43.7208 172.161C42.8012 158.096 53.7403 136.869 69.7372 124.481C58.8302 115.901 39.3795 116.053 28.3014 107.419C22.1961 115.119 16.7345 123.319 11.973 131.936C4.16705 146.119 -1.07255 161.147 0.766667 177.69C1.48695 184.467 3.5839 191.019 6.9259 196.937C11.8221 205.725 19.228 212.811 28.1731 217.266C41.7426 224.202 58.7874 225.554 82.8896 217.407C92.9221 213.175 102.717 208.39 112.232 203.072C119.92 198.841 129.341 192.155 138.718 188.206L140.44 188.996C152.587 194.633 161.922 202.552 170.947 211.77C172.551 213.4 174.148 215.07 175.738 216.78C175.321 216.304 174.915 215.828 174.497 215.362L176.401 217.472L175.738 216.78C181.557 223.379 186.961 230.342 191.917 237.628C197.263 232.749 202.546 227.826 207.839 222.86C202.492 227.826 197.22 232.749 191.917 237.628C195.948 243.514 199.69 249.616 203.112 255.804C215.174 248.404 227.346 241.126 239.629 233.971C238.56 232.06 237.476 230.145 236.378 228.226Z" fill="#F6F6F7"/>
<path d="M139.124 150.815L129.308 175.353L150.726 166.589L170.658 184.744L168.776 154.461L139.124 150.815Z" fill="#F6F6F7"/>
<path d="M209.005 275.233L205.145 286.95C204.012 290.098 205.701 295.043 209.807 295.605C213.914 296.168 217.111 292.489 218.533 288.465L221.292 281.735L222.243 282.925L233.824 303.568C236.54 308.415 241.309 310.925 244.346 309.162L244.763 308.924C247.597 307.29 248.057 302.551 245.95 298.018C248.73 302.162 252.997 304.196 255.831 302.562L256.258 302.324C258.301 301.145 259.103 298.342 258.611 295.172C260.749 296.784 263.337 297.239 265.347 296.081C269.079 293.917 269.764 288.021 266.866 282.86L243.662 241.39L216.373 257.078L209.005 275.233Z" fill="#EDA5BB"/>
<path d="M222.37 282.042L217.601 273.549C216.885 272.272 215.088 273.624 215.794 274.879C217.377 277.714 218.966 280.549 220.563 283.383C221.269 284.649 223.076 283.297 222.37 282.042Z" fill="#242C38"/>
<path d="M248.58 300.716L236.005 278.309C235.289 277.044 233.492 278.385 234.198 279.64C238.39 287.12 242.578 294.592 246.763 302.058C247.49 303.323 249.286 301.982 248.58 300.716Z" fill="#242C38"/>
<path d="M259.669 294.363C255.627 287.15 251.575 279.937 247.511 272.725C246.805 271.459 244.998 272.8 245.704 274.066L257.862 295.705C258.568 296.97 260.386 295.629 259.669 294.363Z" fill="#242C38"/>
<path d="M267.537 288.66L236.346 306.576C235.095 307.301 236.42 309.119 237.672 308.416L268.853 290.499C270.114 289.774 268.778 287.946 267.537 288.66Z" fill="#242C38"/>
<path d="M216.522 291.225C213.365 289.097 209.983 287.334 206.438 285.967C205.091 285.459 204.161 287.525 205.519 288.044C208.901 289.319 212.13 290.977 215.143 292.989C216.34 293.789 217.762 292.037 216.554 291.225H216.522Z" fill="#242C38"/>
<path d="M100.652 204.35C106.042 196.113 111.142 187.707 115.954 179.131C116.66 177.854 114.607 176.967 113.901 178.2C109.189 186.603 104.199 194.84 98.9307 202.911C98.1501 204.123 99.8717 205.573 100.674 204.35H100.652Z" fill="#242C38"/>
<path d="M147.593 177.44C144.267 175.659 140.7 174.379 137.007 173.642C136.774 173.602 136.535 173.616 136.307 173.684C136.08 173.751 135.872 173.871 135.697 174.033C135.523 174.194 135.387 174.395 135.301 174.618C135.215 174.841 135.18 175.081 135.2 175.319C135.51 178.76 135.671 182.687 136.056 185.911C114.041 208.704 87.138 226.066 57.4292 236.653C55.932 237.067 54.5418 237.805 53.355 238.817C52.3797 239.912 51.6501 241.208 51.2164 242.615C48.1154 250.506 45.0037 258.389 41.8813 266.266L62.4335 266.893C63.6843 266.995 64.9434 266.9 66.1655 266.612C67.5326 266.127 68.8008 265.393 69.9081 264.448C94.299 245.796 123.673 216.281 139.007 186.701C140.696 185.673 145.316 182.006 147.764 180.015C147.965 179.86 148.125 179.657 148.23 179.424C148.334 179.191 148.38 178.936 148.363 178.681C148.346 178.426 148.267 178.179 148.133 177.963C147.998 177.746 147.813 177.566 147.593 177.44Z" fill="#EA552B"/>
<path d="M31.9922 122.775C29.9712 124.993 26.5281 122.028 28.4635 119.713C30.399 117.397 33.81 120.394 31.9922 122.775C31.1153 123.932 32.8476 125.371 33.7244 124.214C34.3067 123.514 34.6706 122.655 34.77 121.746C34.8694 120.837 34.6998 119.918 34.2827 119.107C33.8656 118.295 33.2198 117.627 32.4271 117.187C31.6344 116.747 30.7305 116.556 29.8299 116.636C28.9294 116.717 28.0728 117.066 27.3686 117.639C26.6644 118.213 26.1442 118.985 25.8742 119.858C25.6041 120.731 25.5964 121.665 25.8517 122.543C26.1071 123.42 26.6141 124.201 27.3086 124.787C28.2435 125.55 29.4344 125.917 30.6309 125.81C31.8274 125.703 32.9363 125.131 33.7244 124.214C34.7082 123.132 32.9652 121.704 31.9922 122.775Z" fill="#242C38"/>
<path d="M25.448 133.663C23.427 135.827 19.9839 132.917 21.9301 130.601C23.8762 128.286 27.2765 131.283 25.448 133.663C24.5712 134.821 26.3142 136.26 27.191 135.102C27.7733 134.402 28.1372 133.543 28.2366 132.634C28.3359 131.725 28.1664 130.807 27.7493 129.995C27.3322 129.184 26.6863 128.516 25.8937 128.076C25.101 127.636 24.197 127.444 23.2965 127.525C22.3959 127.605 21.5393 127.954 20.8351 128.528C20.1308 129.101 19.6108 129.874 19.3407 130.747C19.0707 131.62 19.0629 132.554 19.3183 133.431C19.5736 134.309 20.0806 135.09 20.7751 135.675C21.7079 136.444 22.9001 136.814 24.0982 136.707C25.2963 136.6 26.4058 136.024 27.191 135.102C28.1748 134.02 26.4318 132.592 25.448 133.663Z" fill="#242C38"/>
<path d="M225.066 230.815C223.473 228.251 227.205 225.676 228.926 228.197C230.648 230.718 226.863 233.228 225.066 230.815C224.89 230.572 224.626 230.411 224.333 230.365C224.039 230.319 223.739 230.394 223.499 230.571C223.26 230.749 223.1 231.016 223.055 231.314C223.01 231.611 223.083 231.914 223.259 232.156C223.777 232.905 224.503 233.48 225.344 233.811C226.186 234.142 227.106 234.213 227.987 234.015C228.868 233.818 229.672 233.36 230.296 232.7C230.921 232.04 231.338 231.208 231.495 230.308C231.652 229.408 231.541 228.482 231.178 227.646C230.814 226.809 230.214 226.101 229.453 225.61C228.692 225.119 227.804 224.867 226.901 224.886C225.998 224.906 225.122 225.196 224.382 225.719C223.402 226.432 222.737 227.504 222.527 228.707C222.318 229.909 222.58 231.147 223.259 232.156C224.029 233.39 225.836 232.048 225.066 230.815Z" fill="#242C38"/>
<path d="M216.404 221.559C214.8 219.006 218.542 216.42 220.264 218.941C221.986 221.462 218.2 223.972 216.404 221.559C215.538 220.391 213.72 221.733 214.586 222.901C215.103 223.65 215.828 224.227 216.669 224.559C217.51 224.891 218.429 224.963 219.311 224.766C220.192 224.57 220.997 224.113 221.622 223.455C222.247 222.796 222.665 221.964 222.824 221.065C222.982 220.166 222.873 219.239 222.511 218.403C222.15 217.566 221.551 216.856 220.79 216.364C220.03 215.871 219.142 215.618 218.24 215.636C217.337 215.654 216.46 215.942 215.719 216.464C214.743 217.179 214.079 218.25 213.867 219.451C213.656 220.652 213.913 221.889 214.586 222.901C215.366 224.134 217.174 222.814 216.404 221.559Z" fill="#242C38"/>
<path d="M69.8109 124.502C72.8905 120.986 66.6992 127.532 69.8109 124.502C58.2303 116.193 47.7404 106.553 36.6623 97.5842C33.8108 100.787 31.0413 104.072 28.3538 107.441C39.4532 116.074 58.904 115.923 69.8109 124.502Z" fill="#F6F6F7"/>
<path d="M239.597 233.994C227.321 241.149 215.149 248.427 203.08 255.827C205.218 259.65 207.2 263.494 209.025 267.36C221.632 260.804 234.218 254.291 246.536 247.334C244.344 242.909 242.045 238.452 239.597 233.994Z" fill="#F6F6F7"/>
<path d="M91.7117 54.039L85.1141 44.3017C83.3925 41.6293 79.3077 40.0281 76.1105 42.4083C72.9132 44.7885 73.3089 49.3326 75.5117 52.7298L79.6606 58.8859L77.4471 58.5938L54.211 54.3311C48.7468 53.3249 43.828 55.11 43.2399 58.2909L43.1651 58.7345C42.6304 61.6773 46.0094 64.8257 50.832 66.0699C45.8704 65.5289 41.6145 67.2708 41.0906 70.2136L41.0051 70.6572C40.6201 72.8211 42.2669 74.9849 45.0471 76.5429C42.4166 77.0838 40.4597 78.5985 40.0855 80.6866C39.3797 84.5599 43.518 88.563 49.3243 89.6341L95.9996 98.1704L99.6567 77.9494C100.556 72.9469 99.6535 67.7838 97.1117 63.3975L91.7117 54.039Z" fill="#EDA5BB"/>
<path d="M48.3953 67.0188L73.2033 71.5737C74.6255 71.8442 74.9676 69.5938 73.5561 69.3341L48.7375 64.7792C48.4439 64.7333 48.1444 64.8073 47.9048 64.9848C47.6652 65.1623 47.5051 65.4289 47.4597 65.7259C47.4143 66.0229 47.4873 66.3259 47.6628 66.5684C47.8383 66.8109 48.1018 66.9729 48.3953 67.0188Z" fill="#242C38"/>
<path d="M45.8605 78.3784L70.2515 82.8576C70.5451 82.9035 70.8445 82.8296 71.0842 82.652C71.3238 82.4745 71.4839 82.2079 71.5293 81.9109C71.5747 81.6139 71.5017 81.3109 71.3262 81.0684C71.1507 80.8259 70.8872 80.6639 70.5936 80.618L46.192 76.1389C45.8985 76.0929 45.599 76.1669 45.3594 76.3444C45.1198 76.522 44.9597 76.7885 44.9143 77.0855C44.8689 77.3825 44.9419 77.6856 45.1174 77.9281C45.2929 78.1705 45.5564 78.3325 45.8499 78.3784H45.8605Z" fill="#242C38"/>
<path d="M45.1213 88.7869C47.1744 77.4917 49.2239 66.1929 51.2699 54.8904C51.3167 54.5934 51.2449 54.2898 51.0704 54.0463C50.8959 53.8028 50.6331 53.6395 50.3396 53.5921C50.046 53.5448 49.746 53.6173 49.5053 53.7939C49.2647 53.9704 49.1032 54.2364 49.0564 54.5334C47.0034 65.8358 44.9573 77.1383 42.9185 88.4407C42.8731 88.7363 42.9457 89.038 43.1202 89.2794C43.2946 89.5209 43.5568 89.6823 43.8489 89.7282C44.141 89.7741 44.4391 89.7008 44.6778 89.5242C44.9164 89.3477 45.0759 89.0825 45.1213 88.7869Z" fill="#242C38"/>
<path d="M75.8107 50.241L85.734 45.8376C87.0599 45.2534 86.2472 43.1436 84.9106 43.7279L74.998 48.1204C73.6828 48.7047 74.4848 50.8252 75.8107 50.2843V50.241Z" fill="#242C38"/>
<path d="M99.9342 83.4785C99.2177 80.2327 98.0094 77.0627 95.4644 74.8231C92.3955 72.1075 88.0649 71.7072 84.2047 70.9823C82.7932 70.7119 82.4402 72.9514 83.8624 73.2219C86.8992 73.7953 90.2782 74.0766 92.9301 75.7752C95.582 77.4738 97.0043 80.5681 97.6993 83.7165C98.0094 85.1338 100.244 84.8958 99.9342 83.4677V83.4785Z" fill="#242C38"/>
<path d="M44.1917 89.646L69.7161 93.6816C70.0097 93.7289 70.3097 93.6563 70.5504 93.4798C70.791 93.3033 70.9525 93.0373 70.9993 92.7403C71.0461 92.4433 70.9744 92.1397 70.7999 91.8962C70.6255 91.6527 70.3625 91.4893 70.069 91.442L44.5338 87.4064C44.2403 87.3605 43.9408 87.4345 43.7012 87.612C43.4615 87.7896 43.3014 88.0561 43.2561 88.3531C43.2107 88.6501 43.2838 88.9532 43.4593 89.1956C43.6348 89.4381 43.8982 89.6001 44.1917 89.646Z" fill="#242C38"/>
<path d="M183.575 122.027C182.992 125.834 181.306 129.381 178.729 132.219C176.153 135.056 172.802 137.057 169.102 137.967C165.402 138.877 161.517 138.656 157.941 137.332C154.365 136.008 151.257 133.64 149.011 130.529C146.765 127.417 145.482 123.701 145.324 119.851C145.166 116.002 146.14 112.191 148.123 108.902C150.107 105.612 153.01 102.992 156.465 101.373C159.921 99.7531 163.773 99.2072 167.536 99.8039C172.573 100.603 177.092 103.392 180.099 107.558C183.106 111.725 184.356 116.928 183.575 122.027Z" fill="#242C38"/>
<path d="M176.647 122.601C175.948 120.945 174.627 119.636 172.975 118.965C171.322 118.293 169.474 118.313 167.836 119.02C167.633 119.118 167.441 119.204 167.248 119.312L167.612 109.391C167.633 108.795 167.443 108.21 167.077 107.742C166.71 107.274 166.191 106.953 165.612 106.838C161.827 106.091 153.454 105.139 145.969 109.175C146.129 109.781 146.332 110.376 146.536 110.971C146.332 110.376 146.129 109.781 145.969 109.175C145.267 109.543 144.588 109.955 143.937 110.408C142.351 111.493 140.913 112.785 139.66 114.249C138.989 115.032 138.36 115.852 137.778 116.705C138.088 117.04 138.409 117.354 138.719 117.679C138.409 117.354 138.088 117.04 137.778 116.705C136.754 118.249 135.873 119.886 135.147 121.595C135.012 121.911 134.942 122.251 134.942 122.595C134.942 122.939 135.012 123.279 135.147 123.595C135.283 123.91 135.481 124.194 135.729 124.429C135.977 124.664 136.271 124.845 136.591 124.96L143.52 127.448L134.517 146.068C132.833 149.479 132.35 153.37 133.149 157.097C133.949 160.823 135.981 164.162 138.911 166.56C139.189 166.787 139.489 167.014 139.788 167.231C150.481 175.042 165.548 167.35 166.029 153.988L166.863 130.975C168.071 131.763 169.497 132.138 170.931 132.045C172.365 131.952 173.732 131.396 174.83 130.459C175.929 129.522 176.701 128.253 177.034 126.839C177.367 125.424 177.243 123.939 176.679 122.601H176.647ZM147.391 113.102C147.145 112.55 146.921 112.02 146.696 111.414C146.888 111.988 147.113 112.55 147.359 113.102H147.391ZM150.193 118.285L149.701 117.473L150.193 118.285ZM149.23 116.651C148.963 116.207 148.728 115.775 148.482 115.331C148.696 115.775 148.931 116.207 149.198 116.651H149.23ZM148.161 114.768C147.915 114.292 147.69 113.816 147.466 113.34C147.69 113.816 147.915 114.292 148.161 114.768ZM143.221 121.26C142.459 120.794 141.723 120.285 141.018 119.734C141.723 120.292 142.458 120.808 143.221 121.281V121.26ZM139.66 118.588L138.954 117.938L139.66 118.588ZM140.729 119.529L139.949 118.88L140.729 119.529ZM143.445 121.422L144.365 121.931L143.445 121.422ZM144.654 122.082C144.985 122.255 145.338 122.418 145.723 122.58C145.37 122.439 145.017 122.277 144.686 122.104L144.654 122.082ZM145.84 122.645C146.268 122.829 146.696 122.991 147.134 123.153C147.573 123.316 148.108 123.456 148.599 123.586C147.671 123.343 146.76 123.036 145.873 122.666L145.84 122.645ZM148.877 123.662C149.391 123.781 149.947 123.889 150.417 123.975C149.915 123.911 149.423 123.802 148.91 123.683L148.877 123.662ZM152.321 124.159C152.855 124.159 153.39 124.159 153.925 124.159C153.422 124.213 152.887 124.213 152.353 124.181L152.321 124.159ZM150.428 123.975C150.93 124.051 151.497 124.094 151.946 124.138C151.476 124.116 150.984 124.073 150.46 123.997L150.428 123.975ZM152.566 122.06C152.994 122.71 153.411 123.37 153.85 124.04C153.433 123.391 153.016 122.731 152.588 122.082L152.566 122.06Z" fill="#EDA5BB"/>
<path d="M172.819 123.184L167.077 123.108C165.484 123.108 165.772 125.586 167.355 125.607L173.097 125.683C174.69 125.683 174.402 123.205 172.819 123.184Z" fill="#242C38"/>
<path d="M153.508 107.466C149.45 108.616 145.479 110.062 141.628 111.793C141.41 111.898 141.226 112.062 141.098 112.268C140.969 112.474 140.901 112.713 140.901 112.956C140.901 113.2 140.969 113.438 141.098 113.644C141.226 113.85 141.41 114.015 141.628 114.119C142.769 114.75 143.948 115.31 145.156 115.796C146.632 116.391 147.659 114.098 146.226 113.503C145.021 113.016 143.846 112.456 142.708 111.826C142.708 112.594 142.708 113.373 142.654 114.141C146.5 112.406 150.467 110.959 154.524 109.813C156.074 109.391 155.154 107.054 153.615 107.476L153.508 107.466Z" fill="#242C38"/>
<path d="M145.07 124.364C145.635 124.825 146.311 125.126 147.028 125.236C147.745 125.346 148.479 125.262 149.153 124.991C149.828 124.72 150.419 124.273 150.866 123.695C151.314 123.117 151.602 122.429 151.7 121.702C151.736 121.378 151.647 121.052 151.451 120.792C151.256 120.533 150.968 120.36 150.65 120.31C150.331 120.26 150.005 120.336 149.741 120.523C149.476 120.71 149.293 120.993 149.23 121.313C149.207 121.605 149.104 121.885 148.934 122.122C148.763 122.359 148.531 122.543 148.264 122.655C147.996 122.767 147.703 122.802 147.417 122.756C147.131 122.71 146.863 122.585 146.642 122.395C145.38 121.399 143.798 123.347 145.07 124.353V124.364Z" fill="#242C38"/>
<path d="M156.331 114.839C156.786 114.594 157.288 114.45 157.803 114.416C158.318 114.381 158.835 114.457 159.319 114.639C159.802 114.821 160.243 115.105 160.611 115.471C160.978 115.837 161.265 116.278 161.453 116.765C161.592 117.048 161.831 117.267 162.123 117.381C162.414 117.494 162.737 117.493 163.028 117.378C163.319 117.263 163.557 117.042 163.694 116.758C163.832 116.474 163.86 116.149 163.773 115.845C163.443 115.004 162.936 114.245 162.288 113.622C161.639 112.999 160.863 112.526 160.016 112.236C159.168 111.947 158.268 111.848 157.379 111.946C156.489 112.045 155.632 112.338 154.866 112.805C153.486 113.638 154.973 115.661 156.331 114.839Z" fill="#242C38"/>
<path d="M182.171 53.8487C181.876 79.7831 201.979 101.048 227.091 101.35C252.203 101.652 272.809 80.8719 273.114 54.9405C273.418 29.009 253.306 7.74101 228.194 7.43889C203.082 7.13677 182.479 27.9172 182.171 53.8487Z" fill="#FCC75F"/>
<path d="M212.726 134.935C217.59 134.315 222.487 133.996 227.39 133.981C232.141 133.998 237.335 134.142 241.876 135.644C244.12 136.383 246.066 137.8 246.79 140.158C247.429 142.251 246.888 144.866 244.901 146C243.056 147.052 240.552 146.876 238.494 146.897C236.437 146.918 234.355 146.897 232.286 146.822C228.032 146.679 223.783 146.394 219.547 146.014C217.999 145.908 216.485 145.502 215.088 144.818C214.172 144.351 212.694 143.541 212.428 142.425C211.922 140.208 216.747 139.493 218.302 139.263C220.832 138.924 223.387 138.816 225.935 138.94C231.378 139.146 237.466 139.981 242.14 143.056C244.1 144.348 245.962 146.379 246.066 148.874C246.264 153.798 240.653 155.931 236.786 156.651C231.767 157.613 226.663 158.041 221.557 157.929C219.118 157.866 216.436 157.803 214.086 157.073C213.143 156.774 211.254 155.667 212.277 154.513C213.675 152.936 216.983 152.718 218.914 152.488C222.396 152.093 225.9 151.931 229.403 152.003C233.814 152.063 239.396 151.815 243.213 154.426C245.82 156.221 247.313 159.852 244.691 162.353C243.231 163.75 241.066 164.282 239.177 164.785C236.978 165.361 234.735 165.75 232.472 165.945C228.027 166.302 223.558 166.202 219.133 165.646C216.91 165.392 214.698 165.048 212.507 164.629C211.372 164.42 210.884 166.179 212.025 166.388C222.054 168.258 233.667 169.415 243.334 165.317C246.518 163.968 248.735 160.773 247.591 157.241C246.231 153.023 241.767 151.258 237.785 150.705C232.168 149.939 226.376 150.005 220.753 150.477C218.092 150.699 215.278 150.989 212.806 152.072C210.334 153.155 209.14 155.661 211.467 157.728C213.22 159.29 216.111 159.362 218.308 159.565C221.444 159.829 224.596 159.836 227.733 159.586C230.669 159.374 233.616 159.033 236.519 158.539C239.012 158.117 241.587 157.468 243.715 156.029C247.038 153.78 248.892 149.73 247.115 145.895C244.428 140.104 236.62 138.306 230.982 137.54C227.624 137.074 224.228 136.948 220.844 137.163C218.006 137.355 214.677 137.678 212.271 139.35C209.554 141.234 210.633 144.028 212.954 145.664C216.268 148.001 220.454 147.956 224.324 148.228C229.462 148.593 234.63 148.865 239.783 148.698C242.012 148.626 244.514 148.584 246.37 147.172C248.055 145.892 248.916 143.72 248.827 141.614C248.602 136.326 243.925 133.995 239.366 133.173C233.531 132.117 227.541 131.976 221.649 132.296C218.651 132.461 215.662 132.748 212.679 133.104C211.541 133.239 211.526 135.066 212.679 134.929L212.726 134.935Z" fill="#414141"/>
<path d="M143.377 79.7382C147.66 80.9078 152.341 79.0159 154.926 75.4271C157.706 71.5702 157.883 66.0877 155.84 61.8601C154.897 59.9055 153.292 58.0415 151.149 57.4619C149.121 56.9119 146.829 57.7613 146.859 60.1701C146.884 62.3474 147.93 64.6501 149.148 66.3992C150.393 68.2021 152.036 69.6861 153.948 70.733C157.995 72.919 163.985 72.926 166.677 68.5922C167.097 67.9152 166.039 67.2938 165.619 67.9674C163.63 71.1664 159.254 71.5127 156.025 70.3275C152.597 69.0691 149.783 66.126 148.605 62.6415C148.331 61.8357 148.04 60.9011 148.089 60.0308C148.152 58.7063 149.348 58.3704 150.466 58.5636C152.442 58.9013 153.877 60.6417 154.734 62.3578C156.493 65.8927 156.454 70.4632 154.462 73.8902C152.329 77.5644 147.827 79.6599 143.711 78.5356C142.949 78.3267 142.624 79.5207 143.384 79.7295L143.377 79.7382Z" fill="#4723D1"/>
<path d="M291.681 42.4428C297.401 45.8499 303.308 41.3271 306.723 36.7833C309.839 32.6344 313.576 25.3386 310.634 20.1966C310.081 19.261 309.284 18.4968 308.331 17.9873C307.379 17.4778 306.306 17.2425 305.23 17.307C302.77 17.4746 301.295 19.4219 301.106 21.794C300.612 27.8453 305.786 32.3741 311.054 33.9236C317.224 35.7423 325.343 34.7971 328.364 28.2402C328.932 27.0048 327.119 25.9219 326.546 27.1633C322.569 35.8022 307.509 33.7142 303.908 25.7455C303.178 24.1272 302.43 20.7979 304.343 19.7001C305.875 18.8206 308.009 19.8556 308.819 21.2615C311.078 25.1711 308.039 31.043 305.863 34.3364C303.202 38.3896 297.904 43.6722 292.733 40.5912C291.565 39.8942 290.507 41.7339 291.675 42.4308L291.681 42.4428Z" fill="#4723D1"/>
<path d="M129.314 16.2531C130.889 14.3985 133.488 15.1463 134.931 16.7826C136.374 18.4188 136.737 20.6294 137.565 22.6156C138.257 24.2847 139.404 25.6697 141.252 25.9867C143.026 26.2859 144.731 25.5231 146.431 25.1552C149.042 24.5928 150.071 26.1662 151.215 28.2511C152.084 29.8365 153.255 31.5416 155.1 32.0082C157.119 32.5167 158.742 30.7519 160.77 31.1347C162.701 31.4997 164.386 33.1569 164.545 35.167C164.658 36.525 166.763 36.537 166.65 35.167C166.515 33.6458 165.88 32.2142 164.848 31.0998C163.816 29.9855 162.445 29.2523 160.953 29.0169C160.267 28.904 159.567 28.9131 158.884 29.0438C157.911 29.2323 157.004 29.9412 156.016 29.9412C153.947 29.9412 153.095 27.0905 152.155 25.6398C151.268 24.2877 150.115 23.1899 148.486 22.9476C146.751 22.6694 145.08 23.3754 143.413 23.7582C141.068 24.2997 139.927 23.16 139.191 21.0033C138.6 19.2653 138.088 17.5334 137 16.0347C134.91 13.1631 130.458 11.6705 127.835 14.7575C126.949 15.7924 128.427 17.306 129.314 16.2531Z" fill="#00A698"/>
<path d="M289.981 68.4883C291.058 66.306 293.761 66.3992 295.558 67.6353C297.356 68.8714 298.246 70.927 299.532 72.6522C300.609 74.1029 302.059 75.1672 303.928 75.0252C305.722 74.8838 307.191 73.729 308.75 72.9585C311.145 71.778 312.526 73.0538 314.143 74.7978C315.372 76.1241 316.922 77.4931 318.825 77.4969C320.907 77.4989 322.052 75.3922 324.113 75.2702C326.074 75.1545 328.112 76.3519 328.755 78.2628C329.195 79.5528 331.239 79.0523 330.797 77.7507C330.296 76.3083 329.332 75.074 328.06 74.2442C326.787 73.4145 325.279 73.0368 323.775 73.1714C323.082 73.2287 322.405 73.408 321.774 73.701C320.877 74.1204 320.169 75.0288 319.211 75.269C317.204 75.7725 315.684 73.2146 314.42 72.0361C313.23 70.9405 311.845 70.1561 310.206 70.3174C308.455 70.4698 307.006 71.5609 305.482 72.3379C303.34 73.4334 301.956 72.6056 300.717 70.6928C299.721 69.1509 298.803 67.5954 297.384 66.4064C294.658 64.1296 289.976 63.7649 288.183 67.3972C287.575 68.6168 289.377 69.7253 289.981 68.4883Z" fill="#00A698"/>
<path d="M246.119 136.324C247.568 123.736 253.51 111.825 260.827 101.696C264.375 96.8057 268.381 92.3008 271.893 87.3891C275.796 81.933 279.284 76.085 281.371 69.6538C283.317 63.6473 283.71 57.207 283.58 50.9223C283.468 45.3795 282.755 39.8037 281.144 34.4942C278.39 25.3962 272.819 17.4347 265.253 11.7844C255.266 4.28223 242.769 0.513207 230.426 0.0585321C217.782 -0.405117 203.946 1.79647 193.625 9.65757C175.055 23.8034 168.764 49.8305 176.312 71.6819C180.07 82.5432 186.999 91.209 194.937 99.2256C202.204 106.557 209.285 114.43 211.387 124.951C211.968 127.975 212.166 131.062 211.978 134.137C211.916 135.309 213.72 135.306 213.782 134.137C214.119 128.498 213.173 122.856 211.014 117.646C209.099 113.105 206.284 109.04 203.127 105.31C200.09 101.741 196.714 98.5047 193.456 95.1395C189.56 91.1342 186.015 86.8118 183.129 81.9988C176.649 71.2092 174.047 58.7505 175.327 46.2141C176.465 35.5461 180.859 25.5016 187.898 17.4768C191.552 13.2507 195.966 9.76578 200.906 7.2077C206.778 4.21642 213.462 2.94213 219.952 2.25713C233.359 0.842248 247.115 3.06776 258.923 9.81909C267.071 14.4795 273.735 21.3056 277.549 30.0103C279.633 34.7604 280.839 39.9084 281.392 45.0654C282.025 51.1168 282.04 57.5361 281.005 63.5426C278.687 76.9375 269.646 87.4729 261.522 97.7599C254.752 106.33 249.208 116.273 246.178 126.835C245.289 129.939 244.658 133.113 244.292 136.324C244.159 137.49 245.962 137.478 246.092 136.324H246.119Z" fill="#414141"/>
<path d="M233.186 101.462C233.066 87.0461 234.695 72.6372 238.038 58.5454C239.688 51.6663 241.42 43.9679 245.022 37.7944C246.017 35.9924 247.375 34.4086 249.01 33.1433C249.817 32.5516 253.252 30.3152 254.281 31.3441C254.967 32.0431 253.541 34.7327 253.18 35.2451C252.132 36.7799 250.784 38.093 249.219 39.1045C243.586 42.9959 235.884 44.7489 229.216 45.4925C222.382 46.2555 215.051 46.0699 208.617 43.5993C205.264 42.3116 201.928 40.367 199.833 37.4162C199.469 36.8522 198.495 35.5167 198.529 35.064C198.641 33.6197 200.669 33.4067 201.576 33.5887C204.097 34.1034 205.995 35.9523 207.48 37.9164C211.55 43.2745 214.503 49.7182 216.791 56.0003C222.211 70.7338 223.371 86.6388 222.284 102.315C222.2 103.638 224.274 103.523 224.362 102.206C225.621 84.0164 223.746 65.4843 216.111 48.8904C213.278 42.7357 209.019 32.2177 201.098 31.4311C192.741 30.6135 197.527 38.7897 200.981 41.6391C207.139 46.7135 215.709 47.9761 223.536 47.858C231.748 47.7555 240.605 46.0645 247.964 42.1865C250.542 40.9372 252.802 39.1157 254.565 36.866C255.715 35.2639 257.551 31.3921 255.843 29.6119C254.443 28.1201 251.233 29.5568 249.77 30.292C245.802 32.2572 243.345 36.0255 241.651 39.9413C233.48 58.9754 230.933 81.218 231.058 101.595C231.089 102.908 233.141 102.807 233.136 101.486L233.186 101.462Z" fill="#F6F6F7"/>
</svg>
