<svg width="249" height="237" viewBox="0 0 249 237" fill="none" xmlns="http://www.w3.org/2000/svg">
<path d="M189.575 21.1399C195.437 21.6332 200.021 16.768 201.09 11.3377C201.593 8.78631 201.688 5.80807 200.698 3.35904C199.891 1.36514 197.944 -0.398894 195.691 0.622108C193.048 1.81875 192.952 5.03678 193.868 7.40028C194.738 9.64848 196.237 11.6431 198.087 13.1811C202.04 16.4671 207.342 17.8402 212.405 17.0895C218.767 16.1464 224.337 12.2075 228.309 7.28345C228.961 6.47627 227.817 5.31781 227.159 6.13339C221.59 13.036 212.485 17.9295 203.623 14.5603C199.837 13.1208 196.195 10.0456 195.118 6.00586C194.797 4.80158 194.808 3.38958 195.793 2.48771C196.744 1.61486 197.912 1.94704 198.629 2.91077C199.897 4.61524 199.894 7.17501 199.749 9.19258C199.362 14.5733 195.482 20.0128 189.576 19.5156C188.532 19.4255 188.537 21.0529 189.575 21.1399Z" fill="#F4A61E"/>
<path d="M4.93077 179.241C7.14646 179.947 9.52599 179.074 11.0857 177.421C12.8124 175.59 13.6555 172.989 14.1057 170.563C14.9036 166.258 13.7929 160.345 8.87902 159.004C6.69494 158.408 4.59342 159.728 4.00644 161.883C3.3814 164.178 4.54762 166.627 6.16795 168.217C9.95043 171.929 15.6261 171.637 20.4322 170.648C25.7879 169.546 31.552 166.824 33.0181 161.058C33.2362 160.201 31.9113 159.835 31.6932 160.693C30.6812 164.671 27.1612 167.183 23.442 168.434C19.484 169.764 14.6011 170.689 10.5497 169.304C8.81258 168.711 7.16517 167.61 6.15505 166.053C5.09912 164.426 4.60696 161.728 6.5769 160.539C8.39267 159.443 10.6187 161.243 11.6043 162.695C12.7479 164.379 13.1117 166.402 12.9995 168.408C12.7873 172.202 10.5148 179.579 5.29715 177.916C4.45151 177.647 4.08965 178.973 4.93077 179.241Z" fill="#F4A61E"/>
<path d="M102.001 119.519L62.2236 171.494L127.411 195.663L145.164 130.761L102.001 119.519Z" fill="white"/>
<path d="M140.718 78.3927C141.511 74.8163 140.353 71.8166 137.278 70.3768C134.204 68.9369 130.596 69.4977 127.444 70.6535C124.292 71.8105 121.347 73.5258 118.107 74.4111C110.579 76.468 101.159 74.3058 95.9142 80.1277C95.1122 81.0178 94.3935 82.4075 94.6629 83.6673C95.0694 85.5688 96.5399 85.2149 97.7802 86.2765C98.8686 87.2082 98.5821 89.0901 97.5879 90.0941C96.5937 91.0981 95.1514 91.4678 93.7924 91.84C88.2704 93.3472 82.9383 95.534 77.9465 98.3366C75.0754 99.9491 71.9912 102.338 72.0255 105.691C72.0426 107.369 74.7595 107.874 74.4779 109.524C73.7788 113.627 65.1567 115.676 64.9731 119.844C64.8861 121.798 66.5158 123.534 68.3658 124.108C70.2158 124.681 72.2079 124.328 74.0444 123.767C78.7546 122.328 86.8526 113.792 91.4771 112.101C98.7095 109.458 94.7204 117.23 99.4465 118.742C103.919 120.172 108.016 113.71 110.302 110.796C114.02 106.059 117.915 100.911 123.551 98.4382C124.571 97.9913 125.76 97.6448 126.779 98.1211C127.597 98.5018 128.132 99.3369 128.916 99.7862C131.403 101.213 133.965 98.159 135.095 95.5315C137.469 90.0108 139.353 84.2685 140.718 78.3927Z" fill="#00153B"/>
<path d="M68.8988 76.9123C74.3449 74.826 80.1239 73.8648 85.9066 73.3163C91.3698 72.7984 96.8195 73.3469 101.41 69.7877C104.485 67.4026 107.141 63.1699 107.517 59.2299C107.921 55.0021 107.107 50.4181 104.276 47.0829C101.703 44.0526 97.8553 41.141 93.7181 40.9757C69.6665 40.017 43.2249 48.0428 28.1921 67.8887C17.4041 82.1318 13.5143 101.186 19.9704 118.081C20.4553 119.35 20.9964 120.587 21.5817 121.797C30.9053 116.315 40.4799 111.223 50.3239 106.628C45.3884 93.5564 57.4179 81.3115 68.8988 76.9123Z" fill="#FFC4B1"/>
<path d="M199.539 108.979C199.417 102.667 200.343 94.2805 198.858 87.1485C197.975 82.9085 196.238 79.1118 192.921 76.4598C187.361 72.0153 178.459 71.5745 172.899 76.2932C169.926 78.8167 166.833 82.7616 166.792 86.851C166.68 97.7455 167.495 108.636 167.5 119.541C167.503 125.934 167.269 132.903 166.379 139.431C166.3 140.017 166.209 140.721 166.103 141.508C176.475 143.737 187.019 144.994 197.603 145.987C199.521 133.749 199.778 121.343 199.539 108.979Z" fill="#FFC4B1"/>
<path d="M166.103 141.508C165.371 146.957 163.896 156.401 159.964 158.476C157.41 154.735 157.93 147.414 157.566 143C157.147 137.926 157.24 132.594 156.334 127.577C154.641 118.199 150.825 109.255 143.216 103.184C128.83 91.7064 111.763 96.8549 98.4541 106.865C89.8835 113.312 81.6434 118.999 70.5788 119.514C62.8615 119.874 54.1991 115.012 50.9166 108.027C50.6962 107.56 50.5015 107.093 50.3252 106.627C40.4812 111.222 30.9066 116.314 21.583 121.795C29.7386 138.64 47.3377 149.605 65.8527 151.542C83.1384 153.35 99.9099 146.754 113.4 136.26C118.113 132.593 123.053 125.509 124.945 134.845C127.442 147.175 125.445 160.437 130.506 172.184C138.756 191.336 162.388 198.396 179.106 185.255C191.255 175.706 195.292 160.664 197.585 146.114C197.593 146.071 197.598 146.028 197.605 145.985C187.02 144.994 176.477 143.736 166.103 141.508Z" fill="white"/>
<path d="M92.6335 74.0501L100.163 79.5892C102.165 81.1393 105.629 81.247 107.355 78.562C109.025 75.9638 107.55 72.5319 104.995 70.5546L100.242 67.0124L101.957 66.6268L120.366 63.4985C124.683 62.7651 127.856 60.058 127.419 57.4831L127.358 57.1244C126.953 54.743 123.593 53.2786 119.675 53.6521C123.496 52.7105 126.185 50.2189 125.78 47.8375L125.718 47.4788C125.427 45.761 123.594 44.5244 121.127 44.1081C122.916 42.9829 123.962 41.2932 123.675 39.6085C123.142 36.4717 118.983 34.5616 114.386 35.3428L77.4365 41.6508L80.2171 58.0121C80.9015 62.0378 82.9658 65.6999 86.0561 68.3703L92.6335 74.0501Z" fill="#FFC4B1"/>
<path d="M121.28 52.6922C114.731 53.8052 108.182 54.9181 101.633 56.0311C100.925 56.1511 101.225 57.2285 101.93 57.1085C108.479 55.9956 115.028 54.8826 121.578 53.7697C122.285 53.6509 121.984 52.5735 121.28 52.6922Z" fill="#00153B"/>
<path d="M120.059 43.3316C113.62 44.4262 107.181 45.5195 100.741 46.6141C100.033 46.7341 100.333 47.8116 101.039 47.6916C107.478 46.597 113.917 45.5036 120.357 44.409C121.064 44.289 120.764 43.2116 120.059 43.3316Z" fill="#00153B"/>
<path d="M105.656 72.8542C103.599 74.8744 101.542 76.8946 99.4843 78.9148C98.9701 79.4193 99.761 80.2102 100.275 79.7058C102.332 77.6855 104.389 75.6653 106.447 73.6451C106.96 73.1407 106.169 72.3497 105.656 72.8542Z" fill="#00153B"/>
<path d="M78.8347 53.8012C80.1681 55.9683 81.9177 58.002 84.342 58.9583C87.2817 60.1178 90.5655 59.2289 93.5566 58.7367C94.2643 58.6203 93.9643 57.5429 93.2591 57.6592C90.6377 58.0902 87.7702 58.8836 85.1562 58.0694C82.7735 57.3274 81.0582 55.2852 79.7995 53.238C79.4249 52.6246 78.4576 53.1853 78.8347 53.8012Z" fill="#00153B"/>
<path d="M117.512 83.8452C117.902 83.9848 117.518 83.8452 117.512 83.8452V83.8452Z" fill="#FFC4B1"/>
<path d="M143.077 83.3812C141.017 82.6638 138.787 83.5833 137.793 85.4504C137.512 84.6277 137.237 83.8355 136.968 83.0764C136.288 81.159 135.651 79.4743 135.106 78.2107C133.518 74.5254 130.391 73.4589 127.038 74.5278C123.639 75.6101 120.009 78.8829 117.512 83.8453C117.512 83.8465 117.512 83.8465 117.513 83.8465C117.513 83.8465 117.513 83.8465 117.515 83.8465C117.52 83.8465 117.902 83.9849 117.515 83.8465H117.513C117.427 84.0204 117.352 84.1857 117.275 84.3534C121.823 85.4762 126.373 85.9598 130.922 85.3096C126.971 89.0636 122.077 90.7214 117.018 90.8965C117.223 91.1634 117.458 91.4009 117.717 91.6041C119.682 93.1554 122.871 92.9987 122.871 92.9987L123.398 109.511C123.468 111.708 124.136 113.877 125.48 115.617C128.546 119.581 133.624 120.259 138.584 118.419C146.285 115.56 144.586 107.21 144.586 107.21C144.586 107.21 142.289 99.3226 139.768 91.4474C140.812 91.9421 142.088 92.1135 144.075 90.9356C144.824 90.4912 145.446 89.8166 145.744 88.9987C146.576 86.7054 145.373 84.1808 143.077 83.3812Z" fill="#FFC4B1"/>
<path d="M117.273 84.3506C115.771 87.594 116.039 89.6252 117.016 90.8936C122.075 90.7186 126.969 89.0608 130.92 85.3068C126.371 85.957 121.822 85.4733 117.273 84.3506Z" fill="white"/>
<path d="M122.883 80.6179C122.717 79.003 120.716 77.8925 119.329 78.9258C118.053 79.8772 118.334 82.1337 119.794 82.7557C120.449 83.0336 121.019 82.0713 120.359 81.7909C119.667 81.497 119.325 80.4575 119.919 79.8845C120.504 79.3201 121.685 79.8417 121.764 80.6191C121.839 81.3268 122.957 81.3342 122.883 80.6179Z" fill="#00153B"/>
<path d="M142.083 85.7122C140.92 86.4015 139.953 87.3222 139.191 88.4389C138.785 89.0351 139.753 89.5947 140.156 89.0033C140.809 88.0471 141.652 87.2684 142.647 86.6782C143.266 86.3109 142.704 85.3436 142.083 85.7122Z" fill="#00153B"/>
<path d="M177.691 51.1205C177.84 52.8689 177.974 54.6209 177.98 56.3755C177.984 57.2509 177.956 58.1263 177.882 58.9993C177.86 59.265 177.689 60.2873 177.826 59.5564C177.756 59.9274 177.683 60.2984 177.592 60.6645C177.479 61.1199 177.343 61.5644 177.193 62.0076C176.904 62.861 177.509 61.4297 177.098 62.2304C176.885 62.6467 176.664 63.0557 176.407 63.4462C176.75 62.9259 176.334 63.5528 176.179 63.7254C174.597 65.475 172.892 66.9786 171.583 68.9755C169.423 72.274 167.875 76.7858 167.195 80.6732C166.396 85.2401 166.682 90.0678 169.367 94.014C171.065 96.508 174.289 97.605 177.018 96.0048C179.492 94.5551 180.715 90.86 179.009 88.3537C178.783 88.0231 178.569 87.6913 178.371 87.3436C177.925 86.56 178.296 87.2983 178.175 86.7914C178.15 86.6897 177.9 85.6772 177.969 86.0641C178.036 86.44 177.929 85.4262 177.926 85.3062C177.883 83.7598 178.145 82.5257 178.669 80.7858C179.109 79.3239 179.803 77.3392 180.309 76.2838C181.187 74.4534 181.986 73.7897 183.448 72.3009C189.097 66.5439 189.52 58.8059 188.871 51.2025C188.624 48.2995 186.527 45.4504 183.321 45.5716C180.527 45.6769 177.425 48.0057 177.691 51.1205Z" fill="#FFC4B1"/>
<path d="M211.834 94.9934V94.6334C211.834 92.2471 209.744 90.2649 207.067 89.9808C209.743 89.6967 211.834 87.7145 211.834 85.3282V84.9682C211.834 82.6297 209.826 80.6817 207.228 80.3364C209.826 79.9911 211.834 78.0432 211.834 75.7046V75.3446C211.834 72.7649 209.393 70.6528 206.408 70.6528H185.594C182.611 70.6528 180.168 72.7637 180.168 75.3446V75.7046C180.168 78.0432 182.176 79.9911 184.774 80.3364C182.176 80.6817 180.168 82.6297 180.168 84.9682V85.3282C180.168 87.7145 182.258 89.6967 184.934 89.9808C182.259 90.2649 180.168 92.2471 180.168 94.6334V94.9934C180.168 97.5744 182.609 99.6852 185.594 99.6852H206.408C209.391 99.6852 211.834 97.5731 211.834 94.9934Z" fill="#FFC4B1"/>
<path d="M206.406 70.0945C200.462 70.0945 194.516 70.0945 188.572 70.0945C185.895 70.0945 183.059 69.8447 181.016 71.9702C177.741 75.3752 180.514 80.1515 184.625 80.8763C184.625 80.5176 184.625 80.1576 184.625 79.7989C181.909 80.2776 179.609 82.2452 179.609 85.1494C179.609 88.1173 182.005 90.1032 184.786 90.5207C184.786 90.162 184.786 89.802 184.786 89.4433C180.602 90.0714 177.687 94.9089 181.016 98.3702C183.061 100.496 185.896 100.246 188.572 100.246C194.516 100.246 200.462 100.246 206.406 100.246C207.125 100.246 207.126 99.1281 206.406 99.1281C201.605 99.1281 196.806 99.1281 192.005 99.1281C189.939 99.1281 187.871 99.1611 185.806 99.1281C183.919 99.0987 181.938 98.3518 181.078 96.5348C179.659 93.5388 182.237 90.9493 185.082 90.5219C185.616 90.4424 185.616 89.5241 185.082 89.4445C182.807 89.1029 180.728 87.6496 180.727 85.1506C180.726 82.7215 182.711 81.2681 184.923 80.8776C185.457 80.7833 185.457 79.8932 184.923 79.8001C182.223 79.3251 179.954 77.0551 180.949 74.1815C181.658 72.1319 183.781 71.2479 185.807 71.216C187.872 71.183 189.94 71.216 192.006 71.216C196.807 71.216 201.606 71.216 206.407 71.216C207.125 71.2124 207.126 70.0945 206.406 70.0945Z" fill="#00153B"/>
<path d="M208.644 79.2036C200.608 79.2036 192.574 79.2036 184.539 79.2036C183.82 79.2036 183.819 80.3215 184.539 80.3215C192.574 80.3215 200.608 80.3215 208.644 80.3215C209.363 80.3215 209.364 79.2036 208.644 79.2036Z" fill="#00153B"/>
<path d="M208.644 89.9854C200.62 89.9854 192.597 89.9854 184.574 89.9854C183.855 89.9854 183.854 91.1032 184.574 91.1032C192.597 91.1032 200.62 91.1032 208.644 91.1032C209.362 91.1032 209.364 89.9854 208.644 89.9854Z" fill="#00153B"/>
<path d="M183.937 71.06C183.937 80.4656 183.937 89.8713 183.937 99.2769C183.937 99.9956 185.054 99.9969 185.054 99.2769C185.054 89.8713 185.054 80.4656 185.054 71.06C185.054 70.3413 183.937 70.3401 183.937 71.06Z" fill="#00153B"/>
<path d="M177.754 50.5417C181.179 50.5417 184.605 50.5417 188.029 50.5417C188.748 50.5417 188.749 49.4238 188.029 49.4238C184.605 49.4238 181.179 49.4238 177.754 49.4238C177.036 49.4238 177.034 50.5417 177.754 50.5417Z" fill="#00153B"/>
<path d="M128.96 60.6283C127.987 54.3631 130.558 48.3655 131.843 45.5275C134.226 40.2632 136.22 35.3786 135.356 30.3405C133.551 19.811 128.04 14.8113 119.991 13.4784C114.049 12.494 108.045 13.9379 102.766 16.8859C96.1369 20.5879 93.6163 28.7815 94.3631 34.7729C95.2791 42.122 99.1025 47.3759 104.77 51.0199C109.021 53.7521 115.573 56.0632 117.16 63.6769L128.96 60.6283Z" fill="white" fill-opacity="0.79"/>
<path d="M125.484 44.4029C131.364 38.5227 131.364 28.989 125.484 23.1089C119.604 17.2287 110.07 17.2287 104.19 23.1089C98.3098 28.989 98.3098 38.5227 104.19 44.4029C110.07 50.283 119.604 50.283 125.484 44.4029Z" fill="#FFBD39"/>
<path d="M129.416 60.5014C128.689 55.2528 130.254 50.2188 132.379 45.4836C134.532 40.6872 136.692 35.5795 135.812 30.2126C134.538 22.4402 130.247 15.646 122.346 13.5019C113.705 11.1556 102.04 13.9531 96.9503 21.7722C92.4081 28.7511 92.9309 38.1053 97.6163 44.8778C100.183 48.5861 103.731 51.0051 107.574 53.2197C111.911 55.7185 115.552 58.6893 116.702 63.801C116.836 64.3954 117.749 64.1433 117.615 63.549C116.809 59.9683 114.811 57.0856 111.904 54.8762C109.068 52.7228 105.735 51.3484 102.938 49.1379C96.2523 43.855 93.0128 34.8721 95.6797 26.6464C97.0489 22.4205 99.806 18.9591 103.751 16.8887C108.738 14.2726 114.456 13.0237 120.054 13.9656C123.551 14.5537 126.897 16.0101 129.426 18.5369C132.305 21.4133 133.847 25.3125 134.663 29.2376C135.959 35.4675 133.31 40.8645 130.916 46.4524C128.974 50.9853 127.815 55.8098 128.501 60.7524C128.587 61.3541 129.499 61.0989 129.416 60.5014Z" fill="#00153B"/>
<path d="M124.805 60.9436C123.324 55.4584 122.461 49.7948 122.331 44.1125C122.268 41.3367 122.14 38.1689 122.944 35.4875C123.161 34.7634 123.475 34.0902 123.967 33.5145C124.166 33.2812 125.209 32.109 125.66 32.4327C126.152 32.7853 125.381 34.4554 125.23 34.7116C124.85 35.3609 124.348 35.9283 123.79 36.4293C119.999 39.8327 113.49 42.2091 108.422 40.9322C107.598 40.7247 105.728 40.1708 105.352 39.2798C104.649 37.616 107.147 38.3058 107.724 38.6273C108.422 39.0163 109.022 39.5848 109.596 40.1345C111.493 41.9487 113.158 43.9974 114.574 46.2068C117.705 51.0904 119.555 56.6388 120.647 62.3066C120.762 62.904 121.675 62.6509 121.559 62.0545C120.26 55.2997 117.847 48.688 113.611 43.1997C111.954 41.0536 109.467 37.5838 106.539 37.2322C105.726 37.1347 104.126 37.2664 103.871 38.2798C103.628 39.2414 104.88 40.2185 105.546 40.6895C110.796 44.3988 119.363 41.122 123.827 37.6212C124.858 36.8131 125.842 35.8132 126.357 34.584C126.682 33.8081 127.016 32.275 126.291 31.58C125.62 30.9379 124.482 31.7553 123.946 32.192C122.837 33.0996 122.212 34.4077 121.89 35.7831C120.941 39.8472 121.268 44.4714 121.64 48.5884C122.025 52.8465 122.777 57.0672 123.892 61.1946C124.051 61.7827 124.965 61.5327 124.805 60.9436Z" fill="#00153B"/>
<path d="M117.217 64.1111C120.186 62.9276 123.274 61.8758 126.471 61.5521C127.166 61.4816 127.922 61.3997 128.606 61.577C130.038 61.9484 131.154 63.8508 129.542 64.9866C128.567 65.6733 126.923 65.8289 125.782 66.026C124.472 66.2531 123.151 66.4056 121.837 66.6058C121.077 66.722 119.587 67.1939 118.816 66.8838C118.19 66.6317 118.787 66.4398 119.274 66.1204C119.881 65.72 120.549 65.3922 121.225 65.1287C122.647 64.5748 124.174 64.2688 125.696 64.1827C126.934 64.1122 128.444 64.0541 129.561 64.6661C132.255 66.1401 129.589 68.5922 127.933 69.3816C126.715 69.9625 125.436 70.4676 124.148 70.8722C122.967 71.2425 120.769 72.1086 119.585 71.6709C118.425 71.2414 119.63 70.6315 120.221 70.3141C120.793 70.0081 121.394 69.7623 122.002 69.5393C124.346 68.6814 128.537 67.0072 130.87 68.4605C133.448 70.0662 129.831 72.3389 128.519 73.314C127.279 74.2361 125.968 75.2174 124.556 75.8678C124.003 76.1219 124.483 76.9393 125.034 76.6851C127.251 75.6644 129.423 73.9861 131.204 72.3368C131.831 71.7559 132.711 70.9811 132.829 70.0735C132.998 68.7706 131.713 67.7022 130.628 67.2904C128.823 66.6058 126.671 67.2251 124.885 67.6763C123.353 68.0632 121.818 68.5258 120.379 69.1866C119.638 69.5268 118.317 70.0818 118.068 70.9811C117.837 71.8151 118.607 72.3794 119.333 72.5837C121.029 73.0619 123.459 72.1211 125.047 71.5703C126.77 70.9728 128.75 70.3152 130.155 69.1233C131.3 68.1524 132.108 66.4616 131.323 65.0136C130.634 63.7419 129.05 63.3747 127.726 63.2595C125.557 63.0707 123.26 63.383 121.217 64.1277C120.099 64.5354 117.862 65.2916 117.453 66.5591C116.729 68.8028 122.367 67.4782 123.116 67.3734C125.3 67.0664 128.072 66.9668 130.018 65.805C131.464 64.943 131.655 63.0655 130.627 61.7824C129.392 60.241 127.28 60.4723 125.536 60.7192C122.576 61.1393 119.732 62.0946 116.964 63.1983C116.406 63.4203 116.65 64.3373 117.217 64.1111Z" fill="#00153B"/>
<path opacity="0.5" d="M118.935 102.738C117.851 105.204 117.158 107.785 116.987 110.48C116.849 112.66 116.744 115.368 118.371 117.043C118.873 117.559 119.663 116.768 119.162 116.252C117.698 114.744 117.972 111.801 118.157 109.837C118.37 107.574 118.988 105.379 119.901 103.303C120.187 102.65 119.224 102.081 118.935 102.738Z" fill="#8F8F8F"/>
<path opacity="0.5" d="M122.484 121.029C127.618 124.907 133.92 127.291 140.252 124.961C145.843 122.904 149.57 117.841 150.281 111.99C150.368 111.277 149.249 111.283 149.163 111.99C148.462 117.763 144.436 122.688 138.789 124.262C133.044 125.862 127.596 123.499 123.05 120.064C122.474 119.631 121.916 120.601 122.484 121.029Z" fill="#8F8F8F"/>
<path opacity="0.5" d="M118.935 124.469C116.929 123.951 115.797 126.702 117.517 127.814C118.258 128.292 119.218 128.284 119.927 127.751C120.698 127.171 120.967 126.234 120.842 125.31C120.817 125.116 120.62 124.977 120.452 124.919C119.853 124.716 119.27 124.696 118.652 124.813C117.946 124.946 118.245 126.023 118.949 125.89C119.373 125.81 119.751 125.859 120.154 125.997C120.024 125.867 119.893 125.736 119.764 125.606C119.87 126.397 119.197 127.288 118.35 126.987C118.015 126.868 117.703 126.576 117.742 126.195C117.786 125.769 118.22 125.438 118.636 125.546C119.334 125.726 119.631 124.649 118.935 124.469Z" fill="#8F8F8F"/>
<path opacity="0.5" d="M114.293 134.407C115.474 134.023 116.29 135.724 115.006 136.208C113.856 136.641 113.38 135.081 114.211 134.437C114.779 133.998 113.984 133.212 113.42 133.646C112.601 134.28 112.44 135.521 112.928 136.407C113.454 137.358 114.613 137.628 115.566 137.178C116.532 136.722 117.089 135.636 116.666 134.611C116.245 133.59 115.057 132.984 113.995 133.328C113.315 133.549 113.607 134.629 114.293 134.407Z" fill="#8F8F8F"/>
<path d="M182.931 106.689C182.931 107.451 182.931 108.211 182.931 108.973C182.931 109.692 184.049 109.693 184.049 108.973C184.049 108.211 184.049 107.451 184.049 106.689C184.049 105.971 182.931 105.969 182.931 106.689Z" fill="#00153B"/>
<path d="M185.214 106.309C185.214 107.45 185.214 108.592 185.214 109.733C185.214 110.452 186.332 110.453 186.332 109.733C186.332 108.592 186.332 107.45 186.332 106.309C186.332 105.59 185.214 105.589 185.214 106.309Z" fill="#00153B"/>
<path d="M179.808 78.9202C180.545 84.9245 178.944 90.8468 175.282 95.6623C174.846 96.2353 175.817 96.7924 176.247 96.2267C180.01 91.279 181.684 85.091 180.926 78.9214C180.839 78.2149 179.72 78.2064 179.808 78.9202Z" fill="#00153B"/>
<path d="M69.2272 59.6064C69.9851 59.2782 70.7932 59.2048 71.6062 59.3125C72.3175 59.4056 72.3102 58.2877 71.6062 58.1947C70.5851 58.06 69.6043 58.2351 68.6628 58.6416C68.0041 58.9256 68.5734 59.8892 69.2272 59.6064Z" fill="#00153B"/>
<path d="M70.2438 62.7387C71.2601 62.4889 72.2751 62.2392 73.2913 61.9906C73.9892 61.8192 73.6941 60.7405 72.9938 60.9132C71.9776 61.1629 70.9625 61.4127 69.9463 61.6613C69.2484 61.8315 69.5435 62.9101 70.2438 62.7387Z" fill="#00153B"/>
<path d="M128.144 81.3889C129.277 79.9993 131.214 79.6736 132.722 80.6592C133.326 81.0535 133.887 80.0862 133.287 79.6944C131.396 78.459 128.786 78.841 127.355 80.5992C126.904 81.1526 127.69 81.9473 128.144 81.3889Z" fill="#00153B"/>
<path d="M129.376 79.9005C129.283 79.4009 129.08 78.921 128.787 78.5059C128.613 78.2598 128.299 78.1435 128.022 78.3051C127.778 78.4471 127.646 78.8218 127.821 79.0703C128.067 79.4193 128.219 79.778 128.298 80.198C128.353 80.4943 128.711 80.6632 128.986 80.5886C129.298 80.5016 129.433 80.198 129.376 79.9005Z" fill="#00153B"/>
<path d="M131.407 79.1629C131.407 78.825 131.407 78.4858 131.407 78.1479C131.407 77.8455 131.15 77.5884 130.847 77.5884C130.544 77.5884 130.289 77.8443 130.289 78.1479C130.289 78.4858 130.289 78.825 130.289 79.1629C130.289 79.4653 130.546 79.7225 130.847 79.7225C131.151 79.7225 131.407 79.4666 131.407 79.1629Z" fill="#00153B"/>
<path d="M132.758 79.933C133.095 79.589 133.337 79.1555 133.426 78.6805C133.483 78.3842 133.344 78.0781 133.036 77.9924C132.763 77.9177 132.405 78.0842 132.348 78.383C132.32 78.5323 132.272 78.7025 132.22 78.7931C132.131 78.9498 132.086 79.0196 131.967 79.1421C131.464 79.6563 132.253 80.4473 132.758 79.933Z" fill="#00153B"/>
<path d="M212.486 149.271C217.922 158.96 232.492 153.293 236.93 145.507C237.985 143.657 238.775 141.15 237.345 139.27C236.023 137.532 233.786 137.867 232.429 139.372C229.015 143.156 231.585 149.268 234.19 152.679C237.379 156.852 242.507 159.869 247.748 158.545C248.621 158.325 248.251 156.933 247.376 157.153C243.682 158.087 239.998 156.493 237.253 153.95C234.536 151.433 232.03 147.54 232.254 143.617C232.343 142.057 233.923 138.06 236.004 139.899C237.72 141.417 236.143 144.27 235.128 145.721C232.85 148.978 228.996 151.337 225.292 152.398C221.084 153.603 216.037 152.72 213.694 148.542C213.243 147.739 212.034 148.465 212.486 149.271Z" fill="white"/>
<path d="M15.7031 221.548C26.5056 221.548 201.718 221.548 201.718 221.548" stroke="#824BF6" stroke-width="3.56915" stroke-miterlimit="10" stroke-linecap="round" stroke-linejoin="round"/>
<path d="M23.3053 213.657C27.5031 217.855 27.5031 224.661 23.3053 228.858C19.1076 233.056 12.3017 233.056 8.10397 228.858C3.90623 224.661 3.90623 217.855 8.10397 213.657C12.3017 209.459 19.1076 209.459 23.3053 213.657Z" fill="#824BF6" stroke="#824BF6" stroke-width="0.10686"/>
<path d="M17.5932 214.757C21.1807 215.799 23.244 219.552 22.2017 223.14C21.1594 226.727 17.4063 228.791 13.8188 227.748C10.2313 226.706 8.16799 222.953 9.21028 219.365C10.2526 215.778 14.0057 213.715 17.5932 214.757Z" fill="white" stroke="#824BF6" stroke-width="0.10686"/>
<path d="M70.9606 213.658C75.1583 217.855 75.1583 224.661 70.9606 228.859C66.7629 233.057 59.957 233.057 55.7592 228.859C51.5615 224.661 51.5615 217.855 55.7592 213.658C59.957 209.46 66.7629 209.46 70.9606 213.658Z" fill="#824BF6" stroke="#824BF6" stroke-width="0.10686"/>
<path d="M68.1424 216.475C70.7839 219.117 70.7839 223.4 68.1424 226.041C65.5008 228.683 61.2179 228.683 58.5763 226.041C55.9348 223.4 55.9348 219.117 58.5763 216.475C61.2179 213.834 65.5008 213.834 68.1424 216.475Z" fill="white" stroke="#824BF6" stroke-width="0.10686"/>
<path d="M118.618 213.657C122.816 217.855 122.816 224.661 118.618 228.858C114.42 233.056 107.614 233.056 103.416 228.858C99.2187 224.661 99.2187 217.855 103.416 213.657C107.614 209.459 114.42 209.459 118.618 213.657Z" fill="#824BF6" stroke="#824BF6" stroke-width="0.10686"/>
<path d="M115.8 216.475C118.441 219.116 118.441 223.399 115.8 226.041C113.158 228.682 108.875 228.682 106.234 226.041C103.592 223.399 103.592 219.116 106.234 216.475C108.875 213.833 113.158 213.833 115.8 216.475Z" fill="white" stroke="#824BF6" stroke-width="0.10686"/>
<path d="M166.276 213.657C170.474 217.855 170.474 224.661 166.276 228.858C162.078 233.056 155.272 233.056 151.075 228.858C146.877 224.661 146.877 217.855 151.075 213.657C155.272 209.459 162.078 209.459 166.276 213.657Z" fill="#824BF6" stroke="#824BF6" stroke-width="0.10686"/>
<path d="M163.459 216.475C166.1 219.116 166.1 223.399 163.459 226.041C160.817 228.682 156.534 228.682 153.893 226.041C151.251 223.399 151.251 219.116 153.893 216.475C156.534 213.833 160.817 213.833 163.459 216.475Z" fill="white" stroke="#824BF6" stroke-width="0.10686"/>
<path d="M213.932 213.658C218.13 217.855 218.13 224.661 213.932 228.859C209.735 233.057 202.929 233.057 198.731 228.859C194.533 224.661 194.533 217.855 198.731 213.658C202.929 209.46 209.735 209.46 213.932 213.658Z" fill="#824BF6" stroke="#824BF6" stroke-width="0.10686"/>
<path d="M211.114 216.476C213.756 219.117 213.756 223.4 211.114 226.042C208.472 228.683 204.19 228.683 201.548 226.042C198.906 223.4 198.906 219.117 201.548 216.476C204.19 213.834 208.472 213.834 211.114 216.476Z" fill="white" stroke="#824BF6" stroke-width="0.10686"/>
<path d="M13.5505 219.731L13.5505 219.731C13.3502 220.258 13.3417 220.879 13.4634 221.499C13.5849 222.12 13.8359 222.735 14.1499 223.25C14.4645 223.766 14.8396 224.175 15.2068 224.388C15.39 224.494 15.5686 224.549 15.7353 224.547C15.9007 224.545 16.0582 224.486 16.2013 224.356C16.3805 224.193 16.8239 223.708 17.4632 223.004C17.514 222.948 17.5661 222.89 17.6194 222.832C18.2342 222.155 19.0068 221.304 19.8808 220.365C21.7801 218.324 24.1589 215.867 26.4382 213.872L26.4734 213.912L26.4382 213.872C27.6222 212.837 28.8527 211.952 29.9441 211.209C30.355 210.929 30.7455 210.67 31.1063 210.431C31.7057 210.033 32.2231 209.69 32.6156 209.397C32.9304 209.163 33.1593 208.965 33.2848 208.801C33.3477 208.719 33.3809 208.651 33.3894 208.594C33.3974 208.541 33.3841 208.496 33.345 208.454C33.3037 208.41 33.2315 208.367 33.1189 208.33C33.0069 208.293 32.8596 208.262 32.6729 208.239C32.2994 208.191 31.7752 208.173 31.0756 208.184L31.0748 208.13L31.0756 208.184C30.3501 208.194 29.4317 208.587 28.451 209.274C27.472 209.96 26.4373 210.933 25.4802 212.092C24.5193 213.257 22.3462 215.636 20.3536 217.71C19.3571 218.747 18.4052 219.708 17.6718 220.404C17.3053 220.752 16.9926 221.034 16.7559 221.226C16.6377 221.322 16.5373 221.396 16.4578 221.445C16.4182 221.47 16.3823 221.489 16.351 221.501L13.5505 219.731ZM13.5505 219.731C13.609 219.576 13.68 219.495 13.7541 219.46C13.8271 219.425 13.9151 219.428 14.0211 219.471C14.1275 219.514 14.2459 219.594 14.3731 219.701C14.4998 219.808 14.6327 219.94 14.7681 220.085C14.9035 220.229 15.0406 220.384 15.1761 220.538L15.1915 220.555C15.3215 220.703 15.4499 220.849 15.5727 220.98C15.7002 221.117 15.8228 221.239 15.9363 221.332C16.0484 221.424 16.1572 221.493 16.2568 221.514L13.5505 219.731Z" fill="#242C38" stroke="#824BF6" stroke-width="0.10686"/>
<path d="M61.0368 220.239L61.0368 220.239C60.8365 220.766 60.828 221.387 60.9497 222.007C61.0713 222.627 61.3222 223.243 61.6362 223.758C61.9508 224.273 62.3259 224.683 62.6931 224.895C62.8763 225.001 63.0549 225.057 63.2216 225.055C63.3871 225.053 63.5445 224.994 63.6877 224.864C63.8668 224.701 64.3103 224.215 64.9495 223.512C65.0004 223.456 65.0525 223.398 65.1057 223.34C65.7205 222.662 66.4932 221.811 67.3671 220.872C69.2664 218.832 71.6452 216.374 73.9245 214.38L73.9597 214.42L73.9245 214.38C75.1085 213.344 76.3391 212.46 77.4305 211.717C77.8413 211.437 78.2318 211.178 78.5927 210.939C79.192 210.541 79.7094 210.198 80.1019 209.905C80.4167 209.67 80.6456 209.472 80.7712 209.309C80.834 209.227 80.8672 209.158 80.8757 209.102C80.8837 209.049 80.8704 209.004 80.8314 208.962C80.79 208.917 80.7179 208.875 80.6052 208.838C80.4932 208.8 80.3459 208.77 80.1592 208.746C79.7857 208.699 79.2615 208.681 78.5619 208.691L78.5611 208.638L78.5619 208.691C77.8364 208.702 76.9181 209.095 75.9374 209.782C74.9583 210.467 73.9236 211.441 72.9665 212.6C72.0056 213.765 69.8325 216.144 67.8399 218.218C66.8435 219.255 65.8915 220.216 65.1581 220.912C64.7916 221.259 64.4789 221.541 64.2422 221.733C64.1241 221.829 64.0236 221.904 63.9441 221.953C63.9045 221.977 63.8686 221.997 63.8373 222.009L61.0368 220.239ZM61.0368 220.239C61.0953 220.084 61.1664 220.003 61.2404 219.968C61.3135 219.933 61.4015 219.936 61.5075 219.979C61.614 220.022 61.7325 220.102 61.8597 220.209C61.9864 220.316 62.1194 220.448 62.2548 220.592C62.3903 220.736 62.5274 220.892 62.6629 221.046L62.6791 221.064C62.8088 221.212 62.937 221.357 63.0595 221.488C63.1869 221.625 63.3095 221.747 63.4229 221.84C63.5349 221.932 63.6436 222 63.743 222.022L61.0368 220.239Z" fill="#242C38" stroke="#824BF6" stroke-width="0.10686"/>
<path d="M108.107 219.874L108.107 219.874C107.907 220.401 107.898 221.022 108.02 221.643C108.142 222.263 108.392 222.878 108.707 223.393C109.021 223.909 109.396 224.318 109.763 224.531C109.947 224.637 110.125 224.692 110.292 224.69C110.457 224.688 110.615 224.629 110.758 224.499C110.937 224.336 111.381 223.851 112.02 223.147C112.071 223.091 112.123 223.033 112.176 222.975C112.791 222.298 113.563 221.447 114.437 220.508C116.337 218.467 118.716 216.01 120.995 214.015L121.03 214.056L120.995 214.015C122.179 212.98 123.409 212.095 124.501 211.352C124.912 211.072 125.302 210.813 125.663 210.574C126.262 210.176 126.78 209.833 127.172 209.54C127.487 209.306 127.716 209.108 127.841 208.944C127.904 208.862 127.938 208.794 127.946 208.737C127.954 208.684 127.941 208.639 127.902 208.597C127.86 208.553 127.788 208.51 127.675 208.473C127.564 208.436 127.416 208.405 127.229 208.382C126.856 208.335 126.332 208.316 125.632 208.327L125.631 208.273L125.632 208.327C124.907 208.337 123.988 208.731 123.008 209.417C122.029 210.103 120.994 211.076 120.037 212.236C119.076 213.4 116.903 215.779 114.91 217.853C113.914 218.89 112.962 219.851 112.228 220.547C111.862 220.895 111.549 221.177 111.313 221.369C111.194 221.465 111.094 221.539 111.014 221.588C110.975 221.613 110.939 221.632 110.908 221.644L108.107 219.874ZM108.107 219.874C108.166 219.72 108.237 219.638 108.311 219.603C108.384 219.568 108.472 219.571 108.578 219.614C108.684 219.657 108.803 219.737 108.93 219.845C109.057 219.952 109.19 220.083 109.325 220.228C109.461 220.372 109.598 220.527 109.733 220.681L109.749 220.699C109.879 220.847 110.007 220.992 110.13 221.123C110.257 221.26 110.38 221.382 110.493 221.475C110.605 221.567 110.714 221.636 110.813 221.657L108.107 219.874Z" fill="#242C38" stroke="#824BF6" stroke-width="0.10686"/>
<path d="M155.167 219.874L155.167 219.874C154.966 220.401 154.958 221.022 155.08 221.643C155.201 222.263 155.452 222.878 155.766 223.393C156.081 223.909 156.456 224.318 156.823 224.531C157.006 224.637 157.185 224.692 157.351 224.69C157.517 224.688 157.674 224.629 157.818 224.499C157.997 224.336 158.44 223.851 159.079 223.147C159.13 223.091 159.182 223.033 159.236 222.975C159.85 222.298 160.623 221.447 161.497 220.508C163.396 218.467 165.775 216.01 168.054 214.015L168.09 214.056L168.054 214.015C169.238 212.98 170.469 212.095 171.56 211.352C171.971 211.072 172.362 210.813 172.723 210.574C173.322 210.176 173.839 209.833 174.232 209.54C174.547 209.306 174.775 209.108 174.901 208.944C174.964 208.862 174.997 208.794 175.006 208.737C175.014 208.684 175 208.639 174.961 208.597C174.92 208.553 174.848 208.51 174.735 208.473C174.623 208.436 174.476 208.405 174.289 208.382C173.916 208.335 173.391 208.316 172.692 208.327L172.691 208.273L172.692 208.327C171.966 208.337 171.048 208.731 170.067 209.417C169.088 210.103 168.054 211.076 167.096 212.236C166.135 213.4 163.962 215.779 161.97 217.853C160.973 218.89 160.021 219.851 159.288 220.547C158.921 220.895 158.609 221.177 158.372 221.369C158.254 221.465 158.153 221.539 158.074 221.588C158.034 221.613 157.998 221.632 157.967 221.644L155.167 219.874ZM155.167 219.874C155.225 219.72 155.296 219.638 155.37 219.603C155.443 219.568 155.531 219.571 155.637 219.614C155.744 219.657 155.862 219.737 155.99 219.845C156.116 219.952 156.249 220.083 156.385 220.228C156.52 220.372 156.657 220.527 156.793 220.681L156.809 220.699C156.939 220.847 157.067 220.992 157.189 221.123C157.317 221.26 157.439 221.382 157.553 221.475C157.665 221.567 157.773 221.636 157.873 221.657L155.167 219.874Z" fill="#242C38" stroke="#824BF6" stroke-width="0.10686"/>
<path d="M210.909 201.293L210.893 201.243C210.863 201.252 210.834 201.261 210.805 201.269C210.785 201.276 210.764 201.282 210.744 201.288C210.437 201.377 210.171 201.425 209.969 201.407C209.869 201.398 209.788 201.373 209.726 201.331C209.665 201.29 209.62 201.23 209.593 201.146L209.593 201.146L209.593 201.145C209.562 201.053 209.555 200.931 209.577 200.77C209.813 199.086 210.874 188.693 211.04 187.065C211.046 187.007 211.051 186.96 211.055 186.925C211.343 187.06 211.616 187.192 211.876 187.32L211.876 187.32L211.876 187.32C211.907 187.335 211.938 187.35 211.968 187.365C211.984 187.373 212 187.381 212.016 187.389C212.274 187.517 212.52 187.64 212.755 187.759C213.726 188.255 214.504 188.688 215.169 189.059C215.202 189.077 215.235 189.095 215.268 189.113C215.889 189.46 216.411 189.752 216.901 189.989C217.934 190.49 218.821 190.747 220.182 190.772L220.182 190.772C221.127 190.789 221.8 190.694 222.446 190.604C222.504 190.596 222.561 190.588 222.617 190.58C223.317 190.483 224.012 190.402 225.024 190.483L225.024 190.483C226.323 190.586 227.749 191.366 228.96 192.341C230.17 193.315 231.156 194.476 231.578 195.324C231.727 195.625 231.813 195.868 231.84 196.064C231.866 196.259 231.835 196.404 231.754 196.514C231.672 196.625 231.534 196.709 231.333 196.769C231.131 196.829 230.871 196.863 230.551 196.88C229.971 196.91 229.206 196.881 228.261 196.845C228.166 196.842 228.069 196.838 227.969 196.834C226.891 196.794 225.599 196.752 224.107 196.78C222.332 196.812 221.193 197.591 220.032 198.385C219.983 198.418 219.935 198.452 219.886 198.485C218.674 199.311 217.404 200.126 215.321 200.135L215.321 200.135L211.161 201.208L211.143 201.157C211.143 201.158 211.143 201.158 211.143 201.158C211.058 201.187 210.974 201.216 210.892 201.243L210.909 201.293ZM210.909 201.293C210.879 201.303 210.849 201.312 210.82 201.321C210.799 201.327 210.779 201.333 210.759 201.339M210.909 201.293L210.759 201.339M210.759 201.339C210.143 201.518 209.663 201.542 209.542 201.162C209.508 201.059 209.501 200.928 209.524 200.762C209.76 199.08 210.821 188.689 210.987 187.059C210.994 186.99 211 186.937 211.003 186.901L210.759 201.339ZM225.028 190.43C223.928 190.342 223.199 190.444 222.439 190.551C221.793 190.641 221.124 190.735 220.183 190.719L225.028 190.43ZM225.028 190.43C227.658 190.637 230.773 193.585 231.626 195.301C232.5 197.059 231.281 197.013 228.26 196.899C227.125 196.856 225.736 196.803 224.108 196.833C222.349 196.865 221.222 197.636 220.06 198.431C218.802 199.291 217.504 200.178 215.321 200.188L225.028 190.43Z" fill="#00A698" stroke="#824BF6" stroke-width="0.10686"/>
<path opacity="0.28" d="M210.91 201.292L210.894 201.241C210.864 201.25 210.835 201.259 210.806 201.268C210.786 201.274 210.765 201.28 210.745 201.287C210.438 201.375 210.172 201.424 209.97 201.406C209.87 201.397 209.789 201.371 209.727 201.33C209.666 201.288 209.621 201.229 209.594 201.144L209.594 201.144L209.594 201.144C209.563 201.052 209.556 200.929 209.578 200.768C209.814 199.084 210.875 188.692 211.041 187.063C211.047 187.005 211.052 186.958 211.056 186.923C211.344 187.059 211.617 187.19 211.877 187.319L211.877 187.319L211.877 187.319C211.908 187.334 211.939 187.349 211.969 187.364C211.985 187.372 212.001 187.379 212.017 187.387C212.08 187.419 212.142 187.45 212.203 187.481C212.381 187.57 212.553 187.656 212.72 187.741C211.834 192.471 211.274 199.086 211.111 201.168C211.037 201.193 210.965 201.218 210.893 201.241L210.91 201.292ZM210.91 201.292C210.992 201.265 211.076 201.236 211.162 201.206L209.543 201.161C209.664 201.541 210.144 201.516 210.76 201.338C210.78 201.332 210.8 201.326 210.821 201.319C210.85 201.31 210.88 201.301 210.91 201.292Z" fill="#242C38" stroke="#824BF6" stroke-width="0.10686"/>
<path d="M207.863 221.996H207.864C208.007 221.997 208.135 221.969 208.227 221.925C208.322 221.879 208.363 221.824 208.366 221.778L208.419 221.781M207.863 221.996L210.506 186.969C210.506 186.969 210.506 186.969 210.506 186.969C210.495 186.815 210.534 186.703 210.598 186.621C210.662 186.537 210.757 186.479 210.866 186.44C211.087 186.36 211.352 186.361 211.503 186.37C211.648 186.378 211.77 186.416 211.851 186.466C211.933 186.517 211.957 186.571 211.949 186.616L211.948 186.616C211.905 186.832 209.369 202.514 208.366 221.778L208.419 221.781M207.863 221.996H207.863H207.863H207.863H207.863H207.863H207.863H207.863H207.863H207.863H207.863H207.863H207.863H207.863H207.863H207.863H207.862H207.862H207.862H207.862H207.862H207.862H207.862H207.862H207.862H207.862H207.862H207.862H207.862H207.862H207.862H207.862H207.862H207.862H207.862H207.862H207.861H207.861H207.861H207.861H207.861H207.861H207.861H207.861H207.861H207.861H207.861H207.861H207.861H207.861H207.861H207.861H207.861H207.861H207.861H207.861H207.86H207.86H207.86H207.86H207.86H207.86H207.86H207.86H207.86H207.86H207.86H207.86H207.86H207.86H207.86H207.86H207.86H207.86H207.86H207.86H207.859H207.859H207.859H207.859H207.859H207.859H207.859H207.859H207.859H207.859H207.859H207.859H207.859H207.859H207.859H207.859H207.859H207.859H207.859H207.859H207.859H207.858H207.858H207.858H207.858H207.858H207.858H207.858H207.858H207.858H207.858H207.858H207.858H207.858H207.858H207.858H207.858H207.858H207.858H207.858H207.858H207.857H207.857H207.857H207.857H207.857H207.857H207.857H207.857H207.857H207.857H207.857H207.857H207.857H207.857H207.857H207.857H207.857H207.857H207.857H207.857H207.857H207.857H207.856H207.856H207.856H207.856H207.856H207.856H207.856H207.856H207.856H207.856H207.856H207.856H207.856H207.856H207.856H207.856H207.856H207.856H207.856H207.856H207.856H207.855H207.855H207.855H207.855H207.855H207.855H207.855H207.855H207.855H207.855H207.855H207.855H207.855H207.855H207.855H207.855H207.855H207.855H207.855H207.855H207.855H207.855H207.855H207.854H207.854H207.854H207.854H207.854H207.854H207.854H207.854H207.854H207.854H207.854H207.854H207.854H207.854H207.854H207.854H207.854H207.854H207.854H207.854H207.854H207.854H207.854H207.853H207.853H207.853H207.853H207.853H207.853H207.853H207.853H207.853H207.853H207.853H207.853H207.853H207.853H207.853H207.853H207.853H207.853H207.853H207.853H207.853H207.853H207.853H207.853H207.853H207.852H207.852H207.852H207.852H207.852H207.852H207.852H207.852H207.852H207.852M207.863 221.996L212.001 186.626C211.958 186.84 209.422 202.519 208.419 221.781M208.419 221.781C208.41 221.933 208.162 222.052 207.863 222.049H207.851M207.851 222.049L207.853 221.996C207.852 221.996 207.852 221.996 207.852 221.996M207.851 222.049C207.546 222.043 206.836 221.702 206.844 221.547L207.851 222.049ZM207.852 221.996C207.783 221.994 207.688 221.974 207.58 221.939C207.474 221.905 207.359 221.858 207.254 221.806C207.148 221.754 207.054 221.699 206.988 221.648C206.954 221.622 206.93 221.599 206.914 221.58C206.899 221.56 206.897 221.551 206.897 221.55C206.897 221.55 206.897 221.55 206.897 221.55L207.852 221.996Z" fill="#242C38" stroke="#824BF6" stroke-width="0.10686"/>
</svg>
