<svg width="29" height="28" viewBox="0 0 29 28" fill="none" xmlns="http://www.w3.org/2000/svg">
<path d="M25.3889 20.1665C25.0362 18.9066 24.3996 17.7349 23.5231 16.7323C22.6469 15.7295 21.5516 14.9201 20.3136 14.36C20.1817 13.6977 19.933 13.0612 19.5777 12.478L26.3185 7.67595C26.4375 7.59305 26.4981 7.45418 26.4762 7.31553C26.4543 7.17687 26.3532 7.06115 26.2138 7.01528L23.0766 5.9475L25.3606 2.06848H25.3603C25.4542 1.91172 25.4181 1.71374 25.2743 1.59633C25.1304 1.47871 24.9193 1.4743 24.7704 1.58581L17.8331 6.84045C17.7161 6.92608 17.6607 7.06769 17.6904 7.20529C17.7134 7.34815 17.8207 7.46555 17.9663 7.50701L21.4558 8.50854L18.8735 11.5398C18.2405 10.8455 17.4483 10.2984 16.5579 9.94114V2.94915C16.5573 2.80102 16.4654 2.66699 16.3232 2.6064C16.1809 2.54601 16.0145 2.57021 15.8981 2.66867L13.8965 4.35487L12.4596 0.261683C12.3996 0.0845214 12.2126 -0.0246756 12.0195 0.00478221C11.8261 0.0340284 11.6843 0.193094 11.6856 0.379299L11.8949 9.1267C11.8976 9.27735 11.9951 9.4118 12.1423 9.46756C12.2892 9.52605 12.4587 9.49386 12.5704 9.38613L14.6767 7.40752L15.0954 9.54309H15.0956C14.7714 9.49343 14.4437 9.46735 14.1154 9.46461C12.9061 9.46482 11.723 9.7981 10.7084 10.4239L8.08837 4.1978C8.02973 4.0604 7.89188 3.96846 7.7361 3.96257C7.58033 3.95436 7.43496 4.03663 7.36813 4.17066L6.17218 6.44805L3.23173 3.15124C3.10516 3.00838 2.88722 2.97618 2.72104 3.07571C2.55287 3.17228 2.48628 3.37259 2.56571 3.54323L6.18505 11.5818C6.24546 11.7209 6.3884 11.8113 6.54661 11.8109C6.70393 11.8111 6.84621 11.7221 6.90838 11.5847L8.08841 8.99973L9.61098 11.2771C8.74136 12.1242 8.15435 13.1966 7.92335 14.3597C6.73006 14.8979 5.66859 15.668 4.80741 16.6205C3.94646 17.5728 3.30479 18.6861 2.92419 19.8887V19.922C2.67437 20.7364 2.54604 21.5802 2.54338 22.4285C2.37853 24.5612 2.59737 27.3362 4.73526 27.8789C4.96649 27.9351 5.20413 27.9635 5.44265 27.9635C5.77964 27.9614 6.11486 27.9158 6.43881 27.8278C6.50232 27.8726 6.57866 27.8979 6.65765 27.9002H21.8142C21.9239 27.9 22.0286 27.8562 22.103 27.7794C22.7247 27.9309 23.3644 28.005 24.0063 27.9997H24.4854H24.7171H24.7168C25.2331 28.0094 25.7208 27.7742 26.0175 27.3723C27.3212 25.6289 25.5924 20.7213 25.3893 20.1659L25.3889 20.1665ZM24.7386 27.2248H24.4943C23.2698 27.258 20.4086 27.3272 18.3597 23.7651H18.3599C17.508 22.314 16.7424 20.8184 16.0664 19.2859C15.9518 19.0014 15.9894 18.6818 16.1669 18.428C16.3444 18.1745 16.6402 18.0184 16.9604 18.0089C17.2806 17.9997 17.5857 18.1383 17.7793 18.3809C18.8451 19.7504 20.7992 22.2418 21.9222 23.5328C21.9885 23.6124 22.0859 23.6631 22.1921 23.6736C22.2983 23.6839 22.4045 23.6532 22.4866 23.5882C22.5687 23.5232 22.6196 23.4293 22.628 23.3281C22.6364 23.2269 22.6015 23.1268 22.5311 23.0502C21.6651 22.0548 20.2916 20.3356 19.2257 18.9689V18.9691C20.0044 17.9493 20.423 16.7212 20.4217 15.4611V15.253C22.5941 16.3818 24.1532 18.3422 24.7042 20.6372L24.7232 20.6162C25.2593 22.1576 26.2553 25.7742 25.4085 26.9144L25.4083 26.9142C25.26 27.1244 25.0045 27.2429 24.739 27.2248L24.7386 27.2248ZM3.68193 20.1154C4.33448 18.0395 5.82204 16.2921 7.82144 15.2531V15.4612C7.82255 16.5454 8.13387 17.609 8.72244 18.5379C7.58359 20.2874 6.47011 22.0247 6.03247 22.8544C5.93755 23.041 6.01632 23.2657 6.21015 23.361C6.30419 23.4061 6.4135 23.4134 6.51351 23.3819C6.61353 23.3501 6.69606 23.2819 6.74297 23.1921C7.46939 21.8135 10.2324 17.6296 11.3965 15.8925C11.5839 15.6367 11.893 15.4866 12.221 15.4921C12.5487 15.4976 12.852 15.6581 13.0297 15.9203C13.2074 16.1822 13.2361 16.5111 13.1062 16.7975C11.8945 19.126 9.73738 23.2341 8.99833 24.7364C8.0911 26.5763 6.16256 27.4752 4.92849 27.1495C2.66665 26.5886 3.25372 21.9222 3.68185 20.1155L3.68193 20.1154ZM11.2758 13.781V13.7812C11.3871 13.9428 11.6088 13.9984 11.7893 13.9098C11.9699 13.8212 12.0509 13.6173 11.977 13.4374L11.0253 11.1451V11.1449C12.2553 10.3392 13.7781 10.0462 15.2409 10.3336L15.758 12.9699V12.9697C15.7948 13.1467 15.9587 13.2733 16.1481 13.2714H16.1831C16.3887 13.2571 16.5469 13.0934 16.5447 12.8973V10.7649C17.2421 11.0897 17.8594 11.5514 18.356 12.1193L17.7026 12.8824C17.588 13.0291 17.6006 13.2332 17.7325 13.3661C17.8646 13.4991 18.0779 13.5227 18.2387 13.4223L18.9302 12.9306C19.4154 13.7625 19.6522 14.7047 19.6146 15.6553C19.5772 16.6059 19.267 17.5287 18.7178 18.3239C18.61 18.1821 18.5051 18.0493 18.4005 17.9258C18.0537 17.4787 17.4986 17.2216 16.9147 17.2376C16.3309 17.2534 15.7922 17.5404 15.4729 18.0054C15.1536 18.4706 15.0943 19.055 15.314 19.5697C15.4218 19.8201 15.5583 20.1216 15.72 20.4747V20.4745C14.5409 20.8222 13.2726 20.7785 12.1228 20.3509C12.732 19.1866 13.3345 18.0373 13.801 17.1537V17.1535C14.0198 16.7375 14.0483 16.2542 13.8802 15.8174C13.7102 15.3888 13.3662 15.0431 12.9254 14.8581C12.5384 14.6984 12.1038 14.6755 11.7007 14.794C11.2975 14.9124 10.9521 15.1641 10.7271 15.5037C10.2861 16.1612 9.75017 16.9727 9.19171 17.8202H9.19193C8.6881 16.8755 8.50024 15.8069 8.65336 14.7578C8.80648 13.7086 9.29328 12.7291 10.0482 11.9504L11.2758 13.781ZM9.71514 25.0595C10.1148 24.2482 10.9301 22.6705 11.7864 21.0267C12.5266 21.3103 13.317 21.4567 14.1148 21.458C14.7789 21.4557 15.4382 21.3539 16.0689 21.1563C16.4654 21.9527 16.9825 22.9329 17.6549 24.1213V24.1215C18.3134 25.3599 19.3162 26.4031 20.5543 27.1379H7.90369C8.68454 26.6038 9.30809 25.8883 9.71503 25.0595L9.71514 25.0595Z" fill="white"/>
</svg>
